<?xml version="1.0" encoding="UTF-8"?>
<svg version="1.1" xmlns="http://www.w3.org/2000/svg" width="524" height="311">
<path d="M0 0 C172.92 0 345.84 0 524 0 C524 102.63 524 205.26 524 311 C351.08 311 178.16 311 0 311 C0 208.37 0 105.74 0 0 Z " fill="#FEFEFE" transform="translate(0,0)"/>
<path d="M0 0 C4.06079986 3.28319989 7.6680764 6.64550523 11.125 10.5625 C14.92905142 14.87244426 18.87838412 18.99497667 22.9375 23.0625 C23.50549316 23.63492432 24.07348633 24.20734863 24.65869141 24.79711914 C27.55334397 27.76236172 27.55334397 27.76236172 31 30 C31.02578125 29.443125 31.0515625 28.88625 31.078125 28.3125 C31.71756888 19.70907324 34.44811957 13.75287062 41 8 C42.2065625 6.9171875 42.2065625 6.9171875 43.4375 5.8125 C49.93300947 1.21811525 56.92746846 1.21542774 64.55078125 2.39453125 C72.19008152 4.2360422 77.79820545 8.61301078 82.4140625 14.9375 C85.61507347 20.28019456 86.17063525 24.72423226 86.25 30.875 C86.27578125 32.06867188 86.3015625 33.26234375 86.328125 34.4921875 C85.971478 38.3049138 84.91012905 40.71256738 83 44 C82.34 44 81.68 44 81 44 C80.62875 44.86625 80.62875 44.86625 80.25 45.75 C77.34955802 50.97079557 73.45785215 53.18820505 67.98828125 55.23828125 C59.87921762 57.30529747 51.33656747 57.19232427 44 53 C44 57.29 44 61.58 44 66 C44.99 64.35 45.98 62.7 47 61 C47.99 61.495 47.99 61.495 49 62 C48.47089775 62.92115349 48.47089775 62.92115349 47.93110657 63.86091614 C43.68137911 72.04098576 43.2641011 79.50716829 43.29296875 88.51171875 C43.27982373 89.9757541 43.26451101 91.43977143 43.24714661 92.90376282 C43.20761018 96.71940854 43.19712672 100.53457652 43.19311523 104.35040283 C43.1837239 108.25913704 43.14627362 112.16759739 43.11132812 116.07617188 C43.04707223 123.71749953 43.01617037 131.35839156 43 139 C47.29 139 51.58 139 56 139 C55.979375 137.081875 55.95875 135.16375 55.9375 133.1875 C55.90039392 129.73663415 55.90493508 127.28519475 57 124 C57.06740865 122.43881572 57.08514456 120.8749748 57.0625 119.3125 C57.05347656 118.50425781 57.04445313 117.69601563 57.03515625 116.86328125 C57.02355469 116.24839844 57.01195312 115.63351563 57 115 C64.86046512 112.43023256 64.86046512 112.43023256 68 114 C69.8125 115.8125 69.8125 115.8125 71 118 C70.75 120 70.75 120 70 122 C69.855625 122.721875 69.71125 123.44375 69.5625 124.1875 C69.376875 124.785625 69.19125 125.38375 69 126 C65.78548731 127.60725635 62.56387464 127.05748185 59 127 C59 131.29 59 135.58 59 140 C66.26 140 73.52 140 81 140 C81 140.66 81 141.32 81 142 C67.47 142 53.94 142 40 142 C40.00954712 137.46560181 40.00954712 137.46560181 40.01928711 132.83959961 C40.03523872 122.84505295 40.01280061 112.85085698 39.97153378 102.85639095 C39.94769326 96.7973979 39.93673192 90.73895486 39.95532227 84.67993164 C39.97279192 78.83109295 39.95627598 72.98324185 39.91632271 67.13452339 C39.90703781 64.90466578 39.90994148 62.67472261 39.92530632 60.44489861 C39.9447611 57.31755301 39.92064595 54.19331868 39.88647461 51.06616211 C39.9022908 50.14690445 39.91810699 49.22764679 39.93440247 48.28053284 C39.82948367 43.28116124 39.18359142 40.631729 35.61354065 37.01246643 C34.43196162 35.98142225 33.22882281 34.97425644 32 34 C30.66195313 32.87851563 30.66195313 32.87851563 29.296875 31.734375 C28.45640625 31.07953125 27.6159375 30.4246875 26.75 29.75 C16.78872664 21.70172838 5.43498142 11.87043206 0 0 Z " fill="#FAB831" transform="translate(234,42)"/>
<path d="M0 0 C0.99 0 1.98 0 3 0 C2.24984418 7.37653219 1.16558465 14.67831776 0 22 C2.31 22.33 4.62 22.66 7 23 C7 23.99 7 24.98 7 26 C4.33333333 25.33333333 1.66666667 24.66666667 -1 24 C-0.88581333 26.58422459 -0.75907638 29.16679513 -0.625 31.75 C-0.5940625 32.47960937 -0.563125 33.20921875 -0.53125 33.9609375 C-0.3251506 37.73942656 -0.08487157 40.77946668 2 44 C4.37897003 44.04510361 4.37897003 44.04510361 7 43 C9.66533378 39.23717583 11.12216704 35.76924085 12.4375 31.375 C13.75640772 27.16022968 15.55419963 24.85749299 19 22 C19.9590625 21.1028125 19.9590625 21.1028125 20.9375 20.1875 C23.82235906 18.52652054 25.73206485 18.51328625 29 19 C32.15936057 21.83253016 32.53374641 24.89696842 33 29 C36.12474627 27.36526484 36.12474627 27.36526484 36.6875 24.875 C36.790625 24.25625 36.89375 23.6375 37 23 C37.99 23 38.98 23 40 23 C40 27.95 40 32.9 40 38 C40.66 38 41.32 38 42 38 C42.10699219 37.30390625 42.21398437 36.6078125 42.32421875 35.890625 C43.09960079 32.57396193 44.32305801 29.81184025 45.8125 26.75 C46.31394531 25.69296875 46.81539063 24.6359375 47.33203125 23.546875 C49 21 49 21 51.19921875 20.140625 C51.79347656 20.09421875 52.38773437 20.0478125 53 20 C54.90318884 22.85478326 55.4619099 24.41941308 56.125 27.6875 C56.29257812 28.49574219 56.46015625 29.30398437 56.6328125 30.13671875 C56.75398438 30.75160156 56.87515625 31.36648437 57 32 C57.99 31.01 58.98 30.02 60 29 C58.94124926 32.40312738 57.99097846 35.01353231 56 38 C54.02 37.505 54.02 37.505 52 37 C51.67 32.71 51.34 28.42 51 24 C50.34 24 49.68 24 49 24 C47.87491599 26.74561785 46.82790902 29.4940299 45.8515625 32.296875 C45.44679688 33.43640625 45.04203125 34.5759375 44.625 35.75 C44.22539062 36.89984375 43.82578125 38.0496875 43.4140625 39.234375 C42 42 42 42 39.8359375 42.890625 C39.23007812 42.92671875 38.62421875 42.9628125 38 43 C36.70756464 38.8803623 35.73747375 35.33168317 36 31 C34.68 31 33.36 31 32 31 C31.95875 31.845625 31.9175 32.69125 31.875 33.5625 C30.70892675 38.14350204 28.85597019 41.20002165 25 44 C21.81257519 44.87130297 19.18371938 44.89409956 16 44 C13.4375 41.5 13.4375 41.5 12 39 C11.57847656 39.56589844 11.15695312 40.13179688 10.72265625 40.71484375 C10.17480469 41.44832031 9.62695312 42.18179688 9.0625 42.9375 C8.51722656 43.66839844 7.97195313 44.39929688 7.41015625 45.15234375 C6 47 6 47 5 48 C2.125 48.3125 2.125 48.3125 -1 48 C-4.20269657 45.12861687 -4.45869573 42.13359624 -5 38 C-5.06522873 35.70916711 -5.0858841 33.41664206 -5.0625 31.125 C-5.05347656 29.97257812 -5.04445313 28.82015625 -5.03515625 27.6328125 C-5.02355469 26.76398438 -5.01195312 25.89515625 -5 25 C-7.12560437 25.30836232 -9.25047065 25.62181614 -11.375 25.9375 C-12.55835938 26.11152344 -13.74171875 26.28554687 -14.9609375 26.46484375 C-17.90702381 26.83462786 -17.90702381 26.83462786 -20 28 C-20.62465688 30.12857011 -21.174107 32.27939097 -21.6875 34.4375 C-23.99446098 42.88201015 -28.11314919 51.43392848 -36 56 C-38.8125 56.25 -38.8125 56.25 -41 56 C-42.125 52.25 -42.125 52.25 -41 50 C-39.14375 50.1546875 -39.14375 50.1546875 -37.25 50.3125 C-33.95113319 50.29504568 -33.28817737 50.24923449 -30.6875 48 C-26.92453342 41.31028163 -25.31116958 34.52765596 -24 27 C-24.66 27.33 -25.32 27.66 -26 28 C-27.66345582 28.12082534 -29.33220591 28.1753794 -31 28.1875 C-32.3303125 28.20876953 -32.3303125 28.20876953 -33.6875 28.23046875 C-36 28 -36 28 -38 26 C-37.625 23.875 -37.625 23.875 -37 22 C-32.25 22.75 -32.25 22.75 -30 25 C-28.02 25.33 -26.04 25.66 -24 26 C-24.495 14.615 -24.495 14.615 -25 3 C-23.68 3 -22.36 3 -21 3 C-19.00881759 7.97011673 -18.75154305 12.12333135 -18.875 17.375 C-18.88402344 18.11105469 -18.89304687 18.84710938 -18.90234375 19.60546875 C-18.92569856 21.4037888 -18.96156164 23.20193911 -19 25 C-18.25234375 24.855625 -17.5046875 24.71125 -16.734375 24.5625 C-15.74953125 24.376875 -14.7646875 24.19125 -13.75 24 C-12.77546875 23.814375 -11.8009375 23.62875 -10.796875 23.4375 C-8 23 -8 23 -4 23 C-4.04125 21.9275 -4.0825 20.855 -4.125 19.75 C-4.125 13.10227977 -3.733385 5.6000775 0 0 Z " fill="#273957" transform="translate(350,220)"/>
<path d="M0 0 C2 2 2 2 2.01171875 4.46875 C1.90472656 5.4690625 1.79773438 6.469375 1.6875 7.5 C1.57921875 8.58796875 1.4709375 9.6759375 1.359375 10.796875 C1.14774924 12.6831046 0.93116322 14.56880917 0.703125 16.453125 C-0.20430371 24.29971447 -0.08806292 32.11347619 0 40 C1.65 36.37 3.3 32.74 5 29 C6.21332065 32.63996196 5.66422619 33.44148115 4.1875 36.875 C3.83042969 37.71804687 3.47335938 38.56109375 3.10546875 39.4296875 C2.74066406 40.27789062 2.37585938 41.12609375 2 42 C1.32896223 43.66491157 0.6609904 45.33107402 0 47 C-0.99 47 -1.98 47 -3 47 C-3.66 45.35 -4.32 43.7 -5 42 C-8.08622793 42.7488143 -8.08622793 42.7488143 -9.8125 45.0625 C-12 47 -12 47 -15.0625 47.5 C-18 47 -18 47 -19.8125 45.1875 C-21 43 -21 43 -22 40 C-22.99 40 -23.98 40 -25 40 C-24.76470581 39.14656006 -24.76470581 39.14656006 -24.5246582 38.27587891 C-24.00370028 36.0160512 -23.76837581 33.89728957 -23.60546875 31.5859375 C-21.95630439 10.71188507 -21.95630439 10.71188507 -16.52734375 4.24609375 C-15 3 -15 3 -12.5 3.125 C-9.89974084 4.03509071 -8.73373542 4.90126765 -7 7 C-3.17053157 5.54744301 -1.87949705 3.57104439 0 0 Z " fill="#F2F6F7" transform="translate(188,217)"/>
<path d="M0 0 C6.93 0 13.86 0 21 0 C21 10.23 21 20.46 21 31 C14.07 31 7.14 31 0 31 C0 20.77 0 10.54 0 0 Z " fill="#455066" transform="translate(201,88)"/>
<path d="M0 0 C6.6 0 13.2 0 20 0 C20 9.9 20 19.8 20 30 C13.4 30 6.8 30 0 30 C0 20.1 0 10.2 0 0 Z " fill="#58627B" transform="translate(245,89)"/>
<path d="M0 0 C0.76570313 0.06832031 1.53140625 0.13664063 2.3203125 0.20703125 C3.22504003 2.92121384 3.49025607 4.74810637 3.6015625 7.55859375 C3.63894531 8.41066406 3.67632812 9.26273438 3.71484375 10.140625 C3.76705078 11.47287109 3.76705078 11.47287109 3.8203125 12.83203125 C4.08201439 19.33580792 4.53372058 25.74386762 5.3203125 32.20703125 C8.55350341 29.24621524 9.77619022 25.93853477 11.2578125 21.89453125 C13.10102222 16.87166055 15.059318 12.52883119 18.3203125 8.20703125 C20.5078125 7.26953125 20.5078125 7.26953125 22.3203125 7.20703125 C24.03189751 8.91861626 23.51030249 11.18836483 23.56640625 13.52734375 C23.59927734 14.62046875 23.63214844 15.71359375 23.66601562 16.83984375 C23.72659525 19.14444717 23.78395483 21.44913777 23.83789062 23.75390625 C24.01866432 29.57959449 24.35020494 34.7034919 26.3203125 40.20703125 C28.48905502 39.70099133 30.31998877 39.20719312 32.3203125 38.20703125 C31.6603125 39.85703125 31.0003125 41.50703125 30.3203125 43.20703125 C26.8553125 43.70203125 26.8553125 43.70203125 23.3203125 44.20703125 C19.32554699 36.91224206 19.11185672 29.96924428 18.7578125 21.83203125 C18.71462891 20.90519531 18.67144531 19.97835937 18.62695312 19.0234375 C18.52155064 16.75142831 18.41942644 14.479322 18.3203125 12.20703125 C18.02785645 12.8932959 17.73540039 13.57956055 17.43408203 14.28662109 C16.10945023 17.38723682 14.7774814 20.4846468 13.4453125 23.58203125 C12.98511719 24.66226563 12.52492187 25.7425 12.05078125 26.85546875 C11.38369141 28.40234375 11.38369141 28.40234375 10.703125 29.98046875 C10.29465332 30.93356934 9.88618164 31.88666992 9.46533203 32.86865234 C8.3203125 35.20703125 8.3203125 35.20703125 6.3203125 37.20703125 C4.3203125 37.14453125 4.3203125 37.14453125 2.3203125 36.20703125 C-1.59163288 29.4125998 -0.81393838 20.30158579 -0.7421875 12.70703125 C-0.73767578 11.78921875 -0.73316406 10.87140625 -0.72851562 9.92578125 C-0.71685076 7.68612734 -0.70048364 5.4466158 -0.6796875 3.20703125 C-1.6696875 3.20703125 -2.6596875 3.20703125 -3.6796875 3.20703125 C-5.60351473 7.91610089 -7.35835039 12.68464521 -9.1171875 17.45703125 C-9.41689453 18.26527344 -9.71660156 19.07351562 -10.02539062 19.90625 C-12.80489382 27.44286386 -15.48036334 34.95268828 -17.3671875 42.76953125 C-17.61855469 43.80207031 -17.86992188 44.83460938 -18.12890625 45.8984375 C-18.31066406 46.66027344 -18.49242188 47.42210937 -18.6796875 48.20703125 C-20.6596875 48.70203125 -20.6596875 48.70203125 -22.6796875 49.20703125 C-27.0232983 41.06276101 -24.35998141 31.30754537 -22.74731445 22.71606445 C-21.90385556 18.12434431 -21.53124728 13.87671324 -21.6796875 9.20703125 C-24.1546875 8.21703125 -24.1546875 8.21703125 -26.6796875 7.20703125 C-26.0196875 5.88703125 -25.3596875 4.56703125 -24.6796875 3.20703125 C-20.8046875 4.08203125 -20.8046875 4.08203125 -19.6796875 5.20703125 C-19.57719556 8.27877492 -19.53911176 11.32277252 -19.5546875 14.39453125 C-19.55662109 15.29333008 -19.55855469 16.19212891 -19.56054688 17.11816406 C-19.60798728 24.51623205 -19.99650893 31.83846241 -20.6796875 39.20703125 C-20.0196875 39.20703125 -19.3596875 39.20703125 -18.6796875 39.20703125 C-18.47666016 38.34658203 -18.47666016 38.34658203 -18.26953125 37.46875 C-8.94963739 0.69144429 -8.94963739 0.69144429 0 0 Z " fill="#223755" transform="translate(99.6796875,220.79296875)"/>
<path d="M0 0 C3.5897018 1.53844363 6.03837897 3.71511548 8.875 6.375 C12.43218522 9.64276926 15.87276881 12.50193901 20 15 C18.25 15.6875 18.25 15.6875 16 16 C13.75 14.6875 13.75 14.6875 12 13 C12 12.34 12 11.68 12 11 C11.34 11 10.68 11 10 11 C10 42.68 10 74.36 10 107 C14.95 107 19.9 107 25 107 C25 98.75 25 90.5 25 82 C33.27272727 79.63636364 33.27272727 79.63636364 36 81 C37.8125 82.8125 37.8125 82.8125 39 85 C38.75 87 38.75 87 38 89 C37.855625 89.721875 37.71125 90.44375 37.5625 91.1875 C37.376875 91.785625 37.19125 92.38375 37 93 C33.78548731 94.60725635 30.56387464 94.05748185 27 94 C27 98.29 27 102.58 27 107 C34.26 107 41.52 107 49 107 C49 107.66 49 108.32 49 109 C35.47 109 21.94 109 8 109 C8.00636475 105.97706787 8.01272949 102.95413574 8.01928711 99.83959961 C8.03523872 89.84505295 8.01280061 79.85085698 7.97153378 69.85639095 C7.94769326 63.7973979 7.93673192 57.73895486 7.95532227 51.67993164 C7.97279192 45.83109295 7.95627598 39.98324185 7.91632271 34.13452339 C7.90703781 31.90466578 7.90994148 29.67472261 7.92530632 27.44489861 C7.9447611 24.31755301 7.92064595 21.19331868 7.88647461 18.06616211 C7.9101989 16.68727562 7.9101989 16.68727562 7.93440247 15.28053284 C7.82704701 10.16505451 7.13612115 7.59896466 3.44459534 3.93336487 C2.29710552 2.95474506 1.14911742 1.97670813 0 1 C0 0.67 0 0.34 0 0 Z " fill="#5A607F" transform="translate(266,75)"/>
<path d="M0 0 C1.875 0.625 1.875 0.625 4 2 C5.25 5.125 5.25 5.125 6 8 C7.32 7.67 8.64 7.34 10 7 C10.33 5.68 10.66 4.36 11 3 C11.99 3 12.98 3 14 3 C14 7.95 14 12.9 14 18 C14.66 18 15.32 18 16 18 C16.10699219 17.30390625 16.21398437 16.6078125 16.32421875 15.890625 C17.09960079 12.57396193 18.32305801 9.81184025 19.8125 6.75 C20.31394531 5.69296875 20.81539063 4.6359375 21.33203125 3.546875 C23 1 23 1 25.19921875 0.140625 C25.79347656 0.09421875 26.38773437 0.0478125 27 0 C28.90318884 2.85478326 29.4619099 4.41941308 30.125 7.6875 C30.37636719 8.89986328 30.37636719 8.89986328 30.6328125 10.13671875 C30.75398438 10.75160156 30.87515625 11.36648437 31 12 C31.99 11.01 32.98 10.02 34 9 C32.94124926 12.40312738 31.99097846 15.01353231 30 18 C28.68 17.67 27.36 17.34 26 17 C25.67 12.71 25.34 8.42 25 4 C24.34 4 23.68 4 23 4 C21.87491599 6.74561785 20.82790902 9.4940299 19.8515625 12.296875 C19.44679688 13.43640625 19.04203125 14.5759375 18.625 15.75 C18.22539062 16.89984375 17.82578125 18.0496875 17.4140625 19.234375 C16 22 16 22 13.8359375 22.890625 C13.23007812 22.92671875 12.62421875 22.9628125 12 23 C10.70756464 18.8803623 9.73747375 15.33168317 10 11 C8.68 11 7.36 11 6 11 C5.95875 11.845625 5.9175 12.69125 5.875 13.5625 C4.71090777 18.13571949 2.22600877 20.66547105 -1 24 C-1.33 23.34 -1.66 22.68 -2 22 C-2.763125 22.0825 -3.52625 22.165 -4.3125 22.25 C-7 22 -7 22 -8.8125 20.4375 C-10.69255463 16.5784405 -10.69961418 13.06667637 -9.3203125 8.9921875 C-8.60241564 7.30342059 -7.8071669 5.64796576 -7 4 C-5 4 -5 4 -3.375 5.5 C-2.92125 5.995 -2.4675 6.49 -2 7 C-1.855625 6.030625 -1.71125 5.06125 -1.5625 4.0625 C-1 1 -1 1 0 0 Z " fill="#2B3E56" transform="translate(376,240)"/>
<path d="M0 0 C2.375 0.75 2.375 0.75 3.375 1.75 C4.14552181 10.22573993 1.39954479 16.93762723 -3.375 23.875 C-6.11154492 28.03454828 -6.1993265 30.82720142 -5.625 35.75 C-4.76234032 38.15557853 -4.76234032 38.15557853 -3.625 39.75 C-1.34158257 40.42154684 -1.34158257 40.42154684 1.375 39.75 C3.38771839 37.26946058 4.89387086 34.57359938 6.375 31.75 C7.375 34.75 7.375 34.75 5.625 38.3125 C4.02761528 41.08408171 3.17821956 41.88118696 0.375 43.75 C-2.625 44.125 -2.625 44.125 -5.625 43.75 C-7.88900012 41.48599988 -8.60758544 39.80224368 -9.625 36.75 C-10.615 36.75 -11.605 36.75 -12.625 36.75 C-12.38970581 35.89656006 -12.38970581 35.89656006 -12.1496582 35.02587891 C-11.62870028 32.7660512 -11.39337581 30.64728957 -11.23046875 28.3359375 C-9.58534032 7.51296929 -9.58534032 7.51296929 -4.16015625 0.98828125 C-2.625 -0.25 -2.625 -0.25 0 0 Z " fill="#27354E" transform="translate(175.625,220.25)"/>
<path d="M0 0 C3.3994607 1.45691173 5.66372389 3.1185928 8 6 C8.390625 9.015625 8.390625 9.015625 8.25 12.25 C8.21390625 13.32765625 8.1778125 14.4053125 8.140625 15.515625 C8.07101562 16.74539062 8.07101562 16.74539062 8 18 C9.32 18.33 10.64 18.66 12 19 C11.071875 19.5775 10.14375 20.155 9.1875 20.75 C1.55776873 26.13569266 -0.31268906 34.24583385 -2 43 C-5.34784108 41.5450489 -7.54377373 39.70194509 -10.109375 37.12109375 C-10.86347656 36.36505859 -11.61757812 35.60902344 -12.39453125 34.83007812 C-13.17183594 34.04052734 -13.94914063 33.25097656 -14.75 32.4375 C-15.54277344 31.64408203 -16.33554688 30.85066406 -17.15234375 30.03320312 C-23 24.14025522 -23 24.14025522 -23 23 C-21.56260487 22.97287934 -20.12506137 22.95354933 -18.6875 22.9375 C-17.48673828 22.92009766 -17.48673828 22.92009766 -16.26171875 22.90234375 C-14 23 -14 23 -11 24 C-11 24.99 -11 25.98 -11 27 C-7.04 26.505 -7.04 26.505 -3 26 C-2.34 26.99 -1.68 27.98 -1 29 C-0.525625 28.195625 -0.05125 27.39125 0.4375 26.5625 C2 24 2 24 3 23 C1.02 22.67 -0.96 22.34 -3 22 C-3 21.01 -3 20.02 -3 19 C-3.66 19 -4.32 19 -5 19 C-7.125 17.4375 -7.125 17.4375 -9 15 C-9.25 11.25 -9.25 11.25 -9 8 C-8.34 8.33 -7.68 8.66 -7 9 C-6.89558594 9.77730469 -6.79117187 10.55460937 -6.68359375 11.35546875 C-6.23415883 14.17342527 -6.23415883 14.17342527 -3.78515625 15.80078125 C-2.88667969 16.29964844 -1.98820312 16.79851563 -1.0625 17.3125 C-0.16660156 17.82425781 0.72929687 18.33601563 1.65234375 18.86328125 C3.86528605 20.14526526 3.86528605 20.14526526 6 20 C5.88658363 17.68690295 5.75896193 15.37449815 5.625 13.0625 C5.55539062 11.77472656 5.48578125 10.48695312 5.4140625 9.16015625 C5.27742188 8.11730469 5.14078125 7.07445312 5 6 C4.34 5.67 3.68 5.34 3 5 C3 4.34 3 3.68 3 3 C2.01 2.67 1.02 2.34 0 2 C0 1.34 0 0.68 0 0 Z " fill="#FAF8EE" transform="translate(267,29)"/>
<path d="M0 0 C0.66 0.66 1.32 1.32 2 2 C-7.36063932 14.62340024 -16.71405172 26.91801868 -27.8125 38.078125 C-28.30093887 38.56999802 -28.78937775 39.06187103 -29.2926178 39.56864929 C-31 41 -31 41 -33.24143982 42.06965637 C-36.32880083 43.73027356 -37.9540783 45.12153736 -40 48 C-41.79391522 54.82977669 -41.18599818 62.24932269 -41.09765625 69.24609375 C-41.10331176 71.34360647 -41.1129258 73.44111194 -41.12632751 75.53858948 C-41.15091287 81.04478434 -41.12187522 86.54942993 -41.08154297 92.05548096 C-41.04987541 97.67961928 -41.06909203 103.3035607 -41.08398438 108.92773438 C-41.10569805 119.95222269 -41.07074516 130.97574433 -41 142 C-43.61824183 138.1044504 -43.26713867 133.97513414 -43.22705078 129.46777344 C-43.22734283 128.60887512 -43.22763489 127.74997681 -43.22793579 126.86505127 C-43.22654388 124.02972263 -43.21098914 121.19465767 -43.1953125 118.359375 C-43.19158188 116.39211165 -43.18873514 114.42484644 -43.18673706 112.45758057 C-43.17910448 107.28229636 -43.15945914 102.10712458 -43.1373291 96.93188477 C-43.11686264 91.64991782 -43.10773363 86.36793268 -43.09765625 81.0859375 C-43.07621295 70.72390896 -43.04208146 60.36196383 -43 50 C-44.3921875 51.0209375 -44.3921875 51.0209375 -45.8125 52.0625 C-46.864375 52.701875 -47.91625 53.34125 -49 54 C-49.99 53.67 -50.98 53.34 -52 53 C-51.33355469 52.52691406 -50.66710937 52.05382812 -49.98046875 51.56640625 C-33.43356795 39.69429421 -18.66458445 26.78224798 -7 10 C-6.30648437 9.0203125 -5.61296875 8.040625 -4.8984375 7.03125 C-3.25222174 4.69637824 -1.61935911 2.35353801 0 0 Z " fill="#374155" transform="translate(232,40)"/>
<path d="M0 0 C0.66 0.33 1.32 0.66 2 1 C0.75 3 0.75 3 -1 5 C-2.32 5 -3.64 5 -5 5 C-3.88145414 8.72614153 -3.88145414 8.72614153 -1 11 C-1 11.66 -1 12.32 -1 13 C-0.34 13 0.32 13 1 13 C0.5251065 17.11574371 -0.0210244 20.36383344 -2 24 C-1.96519531 23.30132812 -1.93039062 22.60265625 -1.89453125 21.8828125 C-1.86746094 20.97273438 -1.84039062 20.06265625 -1.8125 19.125 C-1.77769531 18.22007813 -1.74289062 17.31515625 -1.70703125 16.3828125 C-1.85205078 15.20332031 -1.85205078 15.20332031 -2 14 C-2.99 13.34 -3.98 12.68 -5 12 C-5.99 12.495 -5.99 12.495 -7 13 C-7.99 12.34 -8.98 11.68 -10 11 C-9.67 10.01 -9.34 9.02 -9 8 C-8.01 8 -7.02 8 -6 8 C-6 7.34 -6 6.68 -6 6 C-8.97 6.99 -11.94 7.98 -15 9 C-15 10.32 -15 11.64 -15 13 C-14.01 13.33 -13.02 13.66 -12 14 C-12.28232721 16.10544013 -12.5761898 18.20933589 -12.875 20.3125 C-13.03742188 21.48425781 -13.19984375 22.65601563 -13.3671875 23.86328125 C-14 27 -14 27 -16 30 C-16.99 30 -17.98 30 -19 30 C-20.85614763 26.28770475 -19.85521777 21.32343623 -19.609375 17.20898438 C-19.48547598 14.65602855 -19.48547598 14.65602855 -20 11 C-22.35824358 8.88070356 -22.35824358 8.88070356 -25 8 C-24.34 9.65 -23.68 11.3 -23 13 C-24.32 13.99 -25.64 14.98 -27 16 C-27.66 15.67 -28.32 15.34 -29 15 C-29 14.34 -29 13.68 -29 13 C-30.32 14.65 -31.64 16.3 -33 18 C-33 12.72 -33 7.44 -33 2 C-31.96875 2.495 -30.9375 2.99 -29.875 3.5 C-20.90541167 6.82383681 -11.36891344 5.87590025 -2.79296875 1.97265625 C-1.03321294 1.12800125 -1.03321294 1.12800125 0 0 Z " fill="#FDFBEE" transform="translate(310,92)"/>
<path d="M0 0 C1 1 1 1 1.3125 3.8125 C1 7 1 7 -0.5625 9.3125 C-3.67595861 11.46797134 -6.26646636 11.7128051 -10 12 C-9.88590407 13.45922693 -9.75834456 14.91740598 -9.625 16.375 C-9.52058594 17.59316406 -9.52058594 17.59316406 -9.4140625 18.8359375 C-9.17107412 21.20334191 -9.17107412 21.20334191 -7 23 C-3.41108074 22.90300218 -2.05816145 22.0500459 0.6875 19.6875 C3.9075099 15.94532633 5.1918325 13.15923168 5.625 8.25 C5.69976562 7.45078125 5.77453125 6.6515625 5.8515625 5.828125 C5.90054688 5.22484375 5.94953125 4.6215625 6 4 C7.32 4 8.64 4 10 4 C10.33 7.96 10.66 11.92 11 16 C11.99 13.36 12.98 10.72 14 8 C15.32591677 11.9777503 14.38574021 14.11698924 13.25 18.125 C12.90453125 19.38570313 12.5590625 20.64640625 12.203125 21.9453125 C11.80609375 22.95335937 11.4090625 23.96140625 11 25 C10.01 25.33 9.02 25.66 8 26 C7.34 22.7 6.68 19.4 6 16 C3.8515625 19.02734375 3.8515625 19.02734375 1.703125 22.0546875 C-0.90772272 25.03680256 -3.11799773 25.87137467 -7 26.4375 C-10 26 -10 26 -12.3125 23.6875 C-14 21 -14 21 -15 18 C-15.66 18.33 -16.32 18.66 -17 19 C-15.48666792 12.53394475 -13.10654702 5.76686494 -8.03515625 1.25 C-5.26366502 -0.45225949 -3.18843562 -0.2834165 0 0 Z " fill="#233758" transform="translate(226,239)"/>
<path d="M0 0 C2.75 0.375 2.75 0.375 3.75 1.375 C4.1875 4.125 4.1875 4.125 3.75 7.375 C0.88978221 10.43476787 -0.89546878 12.22776835 -5.125 12.6875 C-6.176875 12.5328125 -6.176875 12.5328125 -7.25 12.375 C-7.10950482 13.85468324 -6.96245174 15.33374516 -6.8125 16.8125 C-6.73128906 17.63621094 -6.65007812 18.45992188 -6.56640625 19.30859375 C-6.46069185 21.36162025 -6.46069185 21.36162025 -5.25 22.375 C-2.57941149 22.51615161 0.07432238 22.41747107 2.75 22.375 C2.9975 21.818125 3.245 21.26125 3.5 20.6875 C4.96606015 17.97528873 6.77989471 15.73912635 8.75 13.375 C8.31572515 18.29678161 6.05904303 20.82959675 2.75 24.375 C-0.98255448 26.86336965 -2.83440935 26.91726552 -7.25 26.375 C-9.4794565 24.1455435 -10.84926107 22.17647786 -12.25 19.375 C-12.8275 20.055625 -13.405 20.73625 -14 21.4375 C-16.25 23.375 -16.25 23.375 -18.3125 23.5 C-21.36068094 21.73008849 -22.00715968 19.63005799 -23.25 16.375 C-23.75014232 13.69635313 -24.01536436 11.09677338 -24.25 8.375 C-24.91 8.375 -25.57 8.375 -26.25 8.375 C-25.59 7.055 -24.93 5.735 -24.25 4.375 C-23.59 4.375 -22.93 4.375 -22.25 4.375 C-21.91226562 5.37402344 -21.57453125 6.37304688 -21.2265625 7.40234375 C-20.77642664 8.70586217 -20.32588475 10.00924043 -19.875 11.3125 C-19.65328125 11.97185547 -19.4315625 12.63121094 -19.203125 13.31054688 C-18.12090848 17.05076664 -18.12090848 17.05076664 -15.25 19.375 C-14.99605469 18.86710937 -14.74210937 18.35921875 -14.48046875 17.8359375 C-13.76301965 16.4010393 -13.04280958 14.96751934 -12.3203125 13.53515625 C-11.44621196 11.77100442 -10.62190043 9.98225747 -9.8125 8.1875 C-7.3342226 3.72660067 -5.26448586 0.60744068 0 0 Z " fill="#2A3E5A" transform="translate(437.25,238.625)"/>
<path d="M0 0 C9.24 0 18.48 0 28 0 C28.04587245 6.63876255 28.08570991 13.27697682 28.10986328 19.91577148 C28.11993058 22.17490501 28.13358538 24.43402547 28.15087891 26.69311523 C28.17509508 29.93736999 28.18647575 33.18145271 28.1953125 36.42578125 C28.20563507 37.43836502 28.21595764 38.45094879 28.22659302 39.49421692 C28.22674408 40.43496567 28.22689514 41.37571442 28.22705078 42.3449707 C28.231492 43.17325882 28.23593323 44.00154694 28.24050903 44.85493469 C28 47 28 47 26 50 C26 34.16 26 18.32 26 2 C18.41 2 10.82 2 3 2 C3 17.84 3 33.68 3 50 C2.34 50 1.68 50 1 50 C0.26461303 46.70825375 -0.12302023 43.67218108 -0.11352539 40.30151367 C-0.11344986 39.40095749 -0.11337433 38.50040131 -0.11329651 37.57255554 C-0.10813522 36.6140419 -0.10297394 35.65552826 -0.09765625 34.66796875 C-0.0962413 33.67622147 -0.09482635 32.68447418 -0.09336853 31.66267395 C-0.08778418 28.50425157 -0.07523452 25.34590085 -0.0625 22.1875 C-0.05748298 20.04231873 -0.05292042 17.89713635 -0.04882812 15.75195312 C-0.03867203 10.50125247 -0.01909348 5.25070616 0 0 Z " fill="#474E6A" transform="translate(219,131)"/>
<path d="M0 0 C0.90105469 0.02707031 1.80210937 0.05414063 2.73046875 0.08203125 C3.76107422 0.13423828 3.76107422 0.13423828 4.8125 0.1875 C3.16676621 1.83323379 1.53090268 3.43498072 -0.21875 4.97265625 C-2.63684031 7.69300784 -3.51228827 10.19068194 -4.6875 13.625 C-6.26826266 18.23377763 -7.95403803 21.52245306 -11.1875 25.1875 C-13.5625 24.9375 -13.5625 24.9375 -16.1875 24.1875 C-18.93824201 20.54462545 -18.412316 16.28333506 -18.3125 11.9375 C-18.30347656 11.19242188 -18.29445313 10.44734375 -18.28515625 9.6796875 C-18.26168358 7.84881941 -18.22581525 6.01811762 -18.1875 4.1875 C-16.16927083 4.51302083 -14.15104167 4.83854167 -12.1328125 5.1640625 C-11.16988281 5.17566406 -11.16988281 5.17566406 -10.1875 5.1875 C-8.23915972 3.31024455 -8.23915972 3.31024455 -6.88671875 1.57421875 C-4.54165528 -0.33956868 -2.98145767 -0.11616069 0 0 Z " fill="#F0F5F7" transform="translate(367.1875,239.8125)"/>
<path d="M0 0 C2.82726947 2.63228537 3.47784461 5.2404812 4 9 C3.34 9.33 2.68 9.66 2 10 C1.731875 8.865625 1.46375 7.73125 1.1875 6.5625 C0.5996875 4.7990625 0.5996875 4.7990625 0 3 C-0.99 2.67 -1.98 2.34 -3 2 C-3.66 3.98 -4.32 5.96 -5 8 C-5.99 7.67 -6.98 7.34 -8 7 C-8 6.34 -8 5.68 -8 5 C-8.66 5 -9.32 5 -10 5 C-11.58019115 9.83933541 -12.39687998 13.84056031 -12 19 C-10.33045181 22.22404978 -10.33045181 22.22404978 -7.375 22.6875 C-6.59125 22.790625 -5.8075 22.89375 -5 23 C-5 23.66 -5 24.32 -5 25 C-10.28497409 25.44041451 -10.28497409 25.44041451 -13 25 C-15.5 22.5 -15.5 22.5 -17 20 C-17.42152344 20.56589844 -17.84304688 21.13179688 -18.27734375 21.71484375 C-18.82519531 22.44832031 -19.37304688 23.18179687 -19.9375 23.9375 C-20.48277344 24.66839844 -21.02804687 25.39929688 -21.58984375 26.15234375 C-23 28 -23 28 -24 29 C-26.875 29.3125 -26.875 29.3125 -30 29 C-33.20269657 26.12861687 -33.45869573 23.13359624 -34 19 C-34.06522873 16.70916711 -34.0858841 14.41664206 -34.0625 12.125 C-34.05347656 10.97257813 -34.04445313 9.82015625 -34.03515625 8.6328125 C-34.02355469 7.76398438 -34.01195312 6.89515625 -34 6 C-32.68 5.67 -31.36 5.34 -30 5 C-29.95101563 6.10859375 -29.90203125 7.2171875 -29.8515625 8.359375 C-29.77650785 9.82294065 -29.70096119 11.28648112 -29.625 12.75 C-29.5940625 13.47960937 -29.563125 14.20921875 -29.53125 14.9609375 C-29.3251506 18.73942656 -29.08487157 21.77946668 -27 25 C-24.62102997 25.04510361 -24.62102997 25.04510361 -22 24 C-19.33466622 20.23717583 -17.87783296 16.76924085 -16.5625 12.375 C-15.24359228 8.16022968 -13.44580037 5.85749299 -10 3 C-9.360625 2.401875 -8.72125 1.80375 -8.0625 1.1875 C-5.17764094 -0.47347946 -3.26793515 -0.48671375 0 0 Z " fill="#233752" transform="translate(379,239)"/>
<path d="M0 0 C0.66 0.33 1.32 0.66 2 1 C1.360625 1.928125 0.72125 2.85625 0.0625 3.8125 C-2.08622093 6.84219943 -2.08622093 6.84219943 -3 10 C-5.5 11.125 -5.5 11.125 -8 12 C-9.35618499 13.12534105 -9.35618499 13.12534105 -9.0625 16.0625 C-9.041875 17.031875 -9.02125 18.00125 -9 19 C-8.67 18.34 -8.34 17.68 -8 17 C-2.39 17.66 3.22 18.32 9 19 C7 21 7 21 3.0859375 21.1953125 C1.51550649 21.18200376 -0.05486221 21.15813602 -1.625 21.125 C-2.42679687 21.11597656 -3.22859375 21.10695313 -4.0546875 21.09765625 C-6.03658523 21.07406223 -8.01832981 21.03819065 -10 21 C-10 22.98 -10 24.96 -10 27 C-6.37 27.33 -2.74 27.66 1 28 C1 28.66 1 29.32 1 30 C3.64 30.33 6.28 30.66 9 31 C9 31.33 9 31.66 9 32 C6.37472811 32.05382106 3.75055287 32.09358313 1.125 32.125 C0.37863281 32.14175781 -0.36773437 32.15851563 -1.13671875 32.17578125 C-3.09194461 32.1933959 -5.04742021 32.10320189 -7 32 C-7.66 31.34 -8.32 30.68 -9 30 C-9.6496875 31.6396875 -9.6496875 31.6396875 -10.3125 33.3125 C-11.49495641 36.09408793 -12.60800043 38.06361939 -15 40 C-15.33 39.34 -15.66 38.68 -16 38 C-15.34 38 -14.68 38 -14 38 C-11.19525341 30.65849199 -10.1685088 21.26227914 -13.4375 13.875 C-13.953125 12.92625 -14.46875 11.9775 -15 11 C-15.37308631 9.67723944 -15.73046415 8.34767923 -16 7 C-15.360625 6.731875 -14.72125 6.46375 -14.0625 6.1875 C-11.66868314 5.11332248 -11.66868314 5.11332248 -11 2 C-9.01432292 2.06510417 -7.02864583 2.13020833 -5.04296875 2.1953125 C-2.68640281 2.13254462 -2.68640281 2.13254462 0 0 Z " fill="#F0E7BF" transform="translate(331,48)"/>
<path d="M0 0 C0.268125 0.598125 0.53625 1.19625 0.8125 1.8125 C1.85148741 4.05679902 1.85148741 4.05679902 3.6875 5.375 C5 7 5 7 4.9375 9.8125 C3.52551862 14.61323669 1.46635349 17.86357605 -2.5 20.9375 C-5 22 -5 22 -7.1875 21.8125 C-9 21 -9 21 -11 19 C-11.1953125 16.8359375 -11.1953125 16.8359375 -11.125 14.375 C-11.10695312 13.55773437 -11.08890625 12.74046875 -11.0703125 11.8984375 C-11.04710937 11.27195313 -11.02390625 10.64546875 -11 10 C-10.16855469 9.70996094 -10.16855469 9.70996094 -9.3203125 9.4140625 C-8.59585938 9.15367187 -7.87140625 8.89328125 -7.125 8.625 C-6.40570313 8.36976563 -5.68640625 8.11453125 -4.9453125 7.8515625 C-2.81842006 7.06122217 -2.81842006 7.06122217 -1 5 C-0.35232207 2.42938689 -0.35232207 2.42938689 0 0 Z " fill="#EEF3F5" transform="translate(227,241)"/>
<path d="M0 0 C0.66 0 1.32 0 2 0 C2 0.66 2 1.32 2 2 C4.57213134 3.61949011 5.67669159 4.04408751 8.75 3.625 C9.86375 3.315625 9.86375 3.315625 11 3 C11 4.32 11 5.64 11 7 C7.02958963 7.22057835 5.76687864 6.88343932 2 5 C2 10.61 2 16.22 2 22 C3.485 19.525 3.485 19.525 5 17 C5.66 17.33 6.32 17.66 7 18 C6.64726517 18.61410233 6.29453033 19.22820465 5.93110657 19.86091614 C1.68137911 28.04098576 1.2641011 35.50716829 1.29296875 44.51171875 C1.27982373 45.9757541 1.26451101 47.43977143 1.24714661 48.90376282 C1.20761018 52.71940854 1.19712672 56.53457652 1.19311523 60.35040283 C1.1837239 64.25913704 1.14627362 68.16759739 1.11132812 72.07617188 C1.04707223 79.71749953 1.01617037 87.35839156 1 95 C5.29 95 9.58 95 14 95 C14 91.04 14 87.08 14 83 C14.33 83 14.66 83 15 83 C15 87.29 15 91.58 15 96 C10.05 96 5.1 96 0 96 C0 64.32 0 32.64 0 0 Z " fill="#A3AABE" transform="translate(276,86)"/>
<path d="M0 0 C6.6 0 13.2 0 20 0 C20 4.29 20 8.58 20 13 C19.67 13 19.34 13 19 13 C18.67 9.37 18.34 5.74 18 2 C15.69 1.67 13.38 1.34 11 1 C11 4.96 11 8.92 11 13 C10.67 13 10.34 13 10 13 C9.67 9.37 9.34 5.74 9 2 C6.69 1.67 4.38 1.34 2 1 C2 5.29 2 9.58 2 14 C3.98 14 5.96 14 8 14 C8 14.33 8 14.66 8 15 C6.02 15 4.04 15 2 15 C2 19.29 2 23.58 2 28 C4.64 28 7.28 28 10 28 C10 23.71 10 19.42 10 15 C10.33 15 10.66 15 11 15 C11 19.29 11 23.58 11 28 C13.64 28 16.28 28 19 28 C19 23.71 19 19.42 19 15 C19.33 15 19.66 15 20 15 C20 19.95 20 24.9 20 30 C13.4 30 6.8 30 0 30 C0 20.1 0 10.2 0 0 Z " fill="#29324A" transform="translate(245,89)"/>
<path d="M0 0 C3.5897018 1.53844363 6.03837897 3.71511548 8.875 6.375 C12.43218522 9.64276926 15.87276881 12.50193901 20 15 C18.25 15.6875 18.25 15.6875 16 16 C13.75 14.6875 13.75 14.6875 12 13 C12 12.34 12 11.68 12 11 C11.34 11 10.68 11 10 11 C10 42.68 10 74.36 10 107 C14.95 107 19.9 107 25 107 C25 103.04 25 99.08 25 95 C25.33 95 25.66 95 26 95 C26 99.29 26 103.58 26 108 C20.39 108 14.78 108 9 108 C9.0030162 106.79001343 9.00603241 105.58002686 9.00914001 104.33337402 C9.03304098 92.91592753 9.0201693 81.49903202 8.97153378 70.08165741 C8.94770626 64.21213711 8.93671862 58.34318417 8.95532227 52.47363281 C8.97280838 46.80632611 8.956243 41.14003749 8.91632271 35.47285461 C8.907047 33.31360122 8.90992615 31.15425943 8.92530632 28.99504089 C8.94479782 25.96366301 8.9206049 22.93548128 8.88647461 19.90429688 C8.9101989 18.57288162 8.9101989 18.57288162 8.93440247 17.21456909 C8.78049084 10.08436154 5.90930548 6.90738026 1 2 C0.67 1.34 0.34 0.68 0 0 Z " fill="#141A3D" transform="translate(266,75)"/>
<path d="M0 0 C0.99 0.33 1.98 0.66 3 1 C2.7834375 2.77890625 2.7834375 2.77890625 2.5625 4.59375 C1.33567487 15.12891941 0.73663217 25.39212912 1 36 C2.65 32.37 4.3 28.74 6 25 C7.21332065 28.63996196 6.66422619 29.44148115 5.1875 32.875 C4.83042969 33.71804687 4.47335938 34.56109375 4.10546875 35.4296875 C3.74066406 36.27789062 3.37585938 37.12609375 3 38 C2.32896223 39.66491157 1.6609904 41.33107402 1 43 C0.01 43 -0.98 43 -2 43 C-7.55731397 31.88537207 -3.04323782 13.60874566 -1 2 C-0.67 1.34 -0.34 0.68 0 0 Z " fill="#243654" transform="translate(187,221)"/>
<path d="M0 0 C4.75 0.75 4.75 0.75 7 3 C9.43252661 3.46162427 9.43252661 3.46162427 12.125 3.625 C13.03507812 3.69976562 13.94515625 3.77453125 14.8828125 3.8515625 C15.93082031 3.92503906 15.93082031 3.92503906 17 4 C15.26183668 14.95500305 11.68944584 25.30878542 2.984375 32.71484375 C0.50976945 34.31749183 -1.10804328 34.24099639 -4 34 C-5.125 30.25 -5.125 30.25 -4 28 C-2.14375 28.1546875 -2.14375 28.1546875 -0.25 28.3125 C3.04886681 28.29504568 3.71182263 28.24923449 6.3125 26 C10.07546658 19.31028163 11.68883042 12.52765596 13 5 C12.01 5.495 12.01 5.495 11 6 C9.33654418 6.12082534 7.66779409 6.1753794 6 6.1875 C4.6696875 6.20876953 4.6696875 6.20876953 3.3125 6.23046875 C1 6 1 6 -1 4 C-0.625 1.875 -0.625 1.875 0 0 Z " fill="#203958" transform="translate(313,242)"/>
<path d="M0 0 C0.66 0 1.32 0 2 0 C2.4125 0.78375 2.825 1.5675 3.25 2.375 C5.44888887 5.6733333 7.23110958 6.07871568 11 7 C10.72816925 10.89624082 10.18905227 12.75843321 7.75 15.875 C5 18 5 18 2.375 18.5625 C0 18 0 18 -1.8125 16.4375 C-3.69255463 12.5784405 -3.69961418 9.06667637 -2.3203125 4.9921875 C-1.60241564 3.30342059 -0.8071669 1.64796576 0 0 Z " fill="#EEF4F7" transform="translate(369,244)"/>
<path d="M0 0 C0.66 2.97 1.32 5.94 2 9 C2.99 9 3.98 9 5 9 C5.66 7.02 6.32 5.04 7 3 C7.99 3 8.98 3 10 3 C9.98839844 4.13179687 9.97679687 5.26359375 9.96484375 6.4296875 C9.95546546 7.91145669 9.9463653 9.39322765 9.9375 10.875 C9.92912109 11.62136719 9.92074219 12.36773437 9.91210938 13.13671875 C9.79311916 17.19845578 9.79311916 17.19845578 11 21 C11.99 21.33 12.98 21.66 14 22 C14.66 20.35 15.32 18.7 16 17 C16.33 17.99 16.66 18.98 17 20 C15.0625 22.6875 15.0625 22.6875 13 25 C10.0625 24.625 10.0625 24.625 7 24 C5.67770811 21.35541621 5.90322806 19.32238699 5.9375 16.375 C5.94652344 15.37210938 5.95554688 14.36921875 5.96484375 13.3359375 C5.97644531 12.56507813 5.98804688 11.79421875 6 11 C3.69 11.33 1.38 11.66 -1 12 C-2.85776765 8.86501708 -3.20140476 6.62528568 -3 3 C-3.45375 3.45375 -3.9075 3.9075 -4.375 4.375 C-5.58333333 5.58333333 -6.79166667 6.79166667 -8 8 C-7.63487253 5.2980567 -7.30130763 3.41609148 -5.6875 1.1875 C-4 0 -4 0 0 0 Z " fill="#223652" transform="translate(249,239)"/>
<path d="M0 0 C3.3994607 1.45691173 5.66372389 3.1185928 8 6 C8.390625 9.015625 8.390625 9.015625 8.25 12.25 C8.21390625 13.32765625 8.1778125 14.4053125 8.140625 15.515625 C8.07101562 16.74539062 8.07101562 16.74539062 8 18 C9.32 18.33 10.64 18.66 12 19 C10.6078125 19.86625 10.6078125 19.86625 9.1875 20.75 C4.01709625 24.39969677 2.30962142 28.28093744 0 34 C-0.6875 32.375 -0.6875 32.375 -1 30 C1.27586207 24.72413793 1.27586207 24.72413793 3 23 C1.02 22.67 -0.96 22.34 -3 22 C-3 21.01 -3 20.02 -3 19 C-3.66 19 -4.32 19 -5 19 C-7.125 17.4375 -7.125 17.4375 -9 15 C-9.25 11.25 -9.25 11.25 -9 8 C-8.01 8.495 -8.01 8.495 -7 9 C-6.89558594 9.77730469 -6.79117187 10.55460937 -6.68359375 11.35546875 C-6.23415883 14.17342527 -6.23415883 14.17342527 -3.78515625 15.80078125 C-2.88667969 16.29964844 -1.98820312 16.79851563 -1.0625 17.3125 C0.28134766 18.08013672 0.28134766 18.08013672 1.65234375 18.86328125 C3.86528605 20.14526526 3.86528605 20.14526526 6 20 C5.88658363 17.68690295 5.75896193 15.37449815 5.625 13.0625 C5.55539062 11.77472656 5.48578125 10.48695312 5.4140625 9.16015625 C5.27742188 8.11730469 5.14078125 7.07445312 5 6 C4.34 5.67 3.68 5.34 3 5 C3 4.34 3 3.68 3 3 C2.01 2.67 1.02 2.34 0 2 C0 1.34 0 0.68 0 0 Z " fill="#FBF3D7" transform="translate(267,29)"/>
<path d="M0 0 C1 1 1 1 1.3125 3.8125 C1 7 1 7 -0.5625 9.3125 C-3.67595861 11.46797134 -6.26646636 11.7128051 -10 12 C-10 12.99 -10 13.98 -10 15 C-10.66 15 -11.32 15 -12 15 C-11.67 13.02 -11.34 11.04 -11 9 C-11.66 8.67 -12.32 8.34 -13 8 C-9.25908793 2.06613947 -7.24580402 -0.47255244 0 0 Z " fill="#36455D" transform="translate(226,239)"/>
<path d="M0 0 C0.99 0 1.98 0 3 0 C3 5.61 3 11.22 3 17 C3.99 17 4.98 17 6 17 C9.49912643 13.39152587 11.19504997 9.60262259 13 5 C13.671875 6.68359375 13.671875 6.68359375 14 9 C12.890625 11.47265625 12.890625 11.47265625 11.25 14.0625 C10.71890625 14.91972656 10.1878125 15.77695312 9.640625 16.66015625 C8.20218284 18.71164876 6.95429717 20.43656226 5 22 C2.3125 21.6875 2.3125 21.6875 0 21 C-0.66 18.69 -1.32 16.38 -2 14 C-2.99 14.99 -3.98 15.98 -5 17 C-4.38674 13.42264999 -3.35823142 10.35563057 -2 7 C-1.31320058 4.67251306 -0.64238957 2.34013344 0 0 Z " fill="#32425B" transform="translate(137,242)"/>
<path d="M0 0 C1 1 1 1 1.4375 3.75 C1 7 1 7 -1.6875 9.875 C-4.97066476 11.98118117 -6.22953618 12.55447997 -10 12 C-10.33 12.66 -10.66 13.32 -11 14 C-12.21359223 8.66019417 -12.21359223 8.66019417 -11.3125 5.875 C-7.97001813 1.1000259 -6.04048027 -0.67116447 0 0 Z " fill="#2E394F" transform="translate(440,239)"/>
<path d="M0 0 C1.8125 1.8125 1.8125 1.8125 3 4 C2.75 6 2.75 6 2 8 C1.814375 8.7425 1.62875 9.485 1.4375 10.25 C1.293125 10.8275 1.14875 11.405 1 12 C-0.98 12 -2.96 12 -5 12 C-5.33 10.35 -5.66 8.7 -6 7 C-6.99 6.67 -7.98 6.34 -9 6 C-9.33 6.99 -9.66 7.98 -10 9 C-11.35439668 6.29120665 -11.06501451 3.99066732 -11 1 C-3.13953488 -1.56976744 -3.13953488 -1.56976744 0 0 Z " fill="#20335B" transform="translate(302,156)"/>
<path d="M0 0 C0.66 0.33 1.32 0.66 2 1 C1.360625 1.928125 0.72125 2.85625 0.0625 3.8125 C-2.08622093 6.84219943 -2.08622093 6.84219943 -3 10 C-3.804375 10.28875 -4.60875 10.5775 -5.4375 10.875 C-8.23928441 11.77944219 -8.23928441 11.77944219 -9.3125 14.625 C-9.539375 15.40875 -9.76625 16.1925 -10 17 C-10.12375 16.071875 -10.12375 16.071875 -10.25 15.125 C-10.78810733 12.81653196 -10.78810733 12.81653196 -13 12 C-15 11 -15 11 -15.75 8.875 C-15.8325 8.25625 -15.915 7.6375 -16 7 C-15.360625 6.731875 -14.72125 6.46375 -14.0625 6.1875 C-11.66868314 5.11332248 -11.66868314 5.11332248 -11 2 C-9.01432292 2.06510417 -7.02864583 2.13020833 -5.04296875 2.1953125 C-2.68640281 2.13254462 -2.68640281 2.13254462 0 0 Z " fill="#FDFAEE" transform="translate(331,48)"/>
<path d="M0 0 C1.859375 0.4921875 1.859375 0.4921875 4 2 C4.94633816 4.76307377 5.65254529 7.2895387 6.25 10.125 C6.42273438 10.87910156 6.59546875 11.63320312 6.7734375 12.41015625 C7.19722184 14.27009861 7.60059024 16.13467145 8 18 C8.99 18 9.98 18 11 18 C11.28875 17.05125 11.5775 16.1025 11.875 15.125 C13 12 13 12 15 10 C14.43623218 13.94637474 13.4640248 16.83196811 11 20 C8.3125 20.8125 8.3125 20.8125 6 21 C3.03769035 17.6476944 2.22392824 14.59013446 1.3125 10.25 C0.93544922 8.49429688 0.93544922 8.49429688 0.55078125 6.703125 C0.36902344 5.81109375 0.18726563 4.9190625 0 4 C-2.22189824 6.22189824 -2.92598892 8.08482708 -4 11 C-5 8 -5 8 -3.6875 4.9375 C-2 2 -2 2 0 0 Z " fill="#243954" transform="translate(281,241)"/>
<path d="M0 0 C1.875 0.625 1.875 0.625 4 2 C5.25 5.125 5.25 5.125 6 8 C7.65 7.67 9.3 7.34 11 7 C11 7.99 11 8.98 11 10 C9.35 10.33 7.7 10.66 6 11 C5.95875 11.845625 5.9175 12.69125 5.875 13.5625 C4.71090777 18.13571949 2.22600877 20.66547105 -1 24 C-1.33 23.01 -1.66 22.02 -2 21 C-1.38125 20.46375 -0.7625 19.9275 -0.125 19.375 C2.2782902 16.68896977 3.06022153 14.44585438 4 11 C3.05125 10.896875 2.1025 10.79375 1.125 10.6875 C-2 10 -2 10 -4 7 C-3.34 7 -2.68 7 -2 7 C-1.855625 6.030625 -1.71125 5.06125 -1.5625 4.0625 C-1 1 -1 1 0 0 Z " fill="#404960" transform="translate(376,240)"/>
<path d="M0 0 C0.33 0 0.66 0 1 0 C1.33 4.62 1.66 9.24 2 14 C3.32 13.01 4.64 12.02 6 11 C6.66 11.33 7.32 11.66 8 12 C5.69 18.6 3.38 25.2 1 32 C0.34 32 -0.32 32 -1 32 C-1.15498126 21.28907291 -0.67842194 10.68514555 0 0 Z " fill="#D6DFE9" transform="translate(80,228)"/>
<path d="M0 0 C0.99 0 1.98 0 3 0 C4.37327149 9.46031468 0.49932803 16.03435292 -4 24 C-4.33 24 -4.66 24 -5 24 C-5.41954857 15.46917899 -4.07265297 7.59638315 0 0 Z " fill="#DDE7EE" transform="translate(174,222)"/>
<path d="M0 0 C2.64 0 5.28 0 8 0 C8 4.29 8 8.58 8 13 C5.36 13 2.72 13 0 13 C0 8.71 0 4.42 0 0 Z " fill="#DCE1E8" transform="translate(212,104)"/>
<path d="M0 0 C2.64 0 5.28 0 8 0 C8 4.29 8 8.58 8 13 C5.36 13 2.72 13 0 13 C0 8.71 0 4.42 0 0 Z " fill="#DAE1EA" transform="translate(203,104)"/>
<path d="M0 0 C0.99 0 1.98 0 3 0 C3.33 5.28 3.66 10.56 4 16 C5.32 14.35 6.64 12.7 8 11 C7.68950274 12.43793392 7.3765224 13.8753318 7.0625 15.3125 C6.88847656 16.11300781 6.71445312 16.91351563 6.53515625 17.73828125 C6 20 6 20 5 23 C3.68 23 2.36 23 1 23 C0.51171875 21.01432292 0.0234375 19.02864583 -0.46484375 17.04296875 C-0.91010705 15.34316798 -1.44433985 13.66698046 -2 12 C-1.75867872 9.9279656 -1.43760371 7.86453794 -1.0625 5.8125 C-0.86785156 4.72582031 -0.67320312 3.63914063 -0.47265625 2.51953125 C-0.31667969 1.68808594 -0.16070312 0.85664063 0 0 Z " fill="#2A3B52" transform="translate(268,241)"/>
<path d="M0 0 C0.66 0.33 1.32 0.66 2 1 C0.75 3 0.75 3 -1 5 C-2.32 5 -3.64 5 -5 5 C-3.88145414 8.72614153 -3.88145414 8.72614153 -1 11 C-1 11.66 -1 12.32 -1 13 C-0.34 13 0.32 13 1 13 C0.5251065 17.11574371 -0.0210244 20.36383344 -2 24 C-1.96519531 23.30132812 -1.93039062 22.60265625 -1.89453125 21.8828125 C-1.86746094 20.97273438 -1.84039062 20.06265625 -1.8125 19.125 C-1.77769531 18.22007813 -1.74289062 17.31515625 -1.70703125 16.3828125 C-1.85205078 15.20332031 -1.85205078 15.20332031 -2 14 C-2.99 13.34 -3.98 12.68 -5 12 C-5.99 12.495 -5.99 12.495 -7 13 C-7.99 12.34 -8.98 11.68 -10 11 C-9.67 10.01 -9.34 9.02 -9 8 C-8.01 8 -7.02 8 -6 8 C-6 7.34 -6 6.68 -6 6 C-7.25876953 6.50273438 -7.25876953 6.50273438 -8.54296875 7.015625 C-12.40852384 8.11632543 -15.31849483 8.07053262 -19.3125 7.75 C-20.54613281 7.66234375 -21.77976562 7.5746875 -23.05078125 7.484375 C-24.02402344 7.32453125 -24.99726563 7.1646875 -26 7 C-26.33 6.34 -26.66 5.68 -27 5 C-25.96101563 5.04640625 -24.92203125 5.0928125 -23.8515625 5.140625 C-15.47320654 5.39896183 -8.51883341 5.24532771 -1 1 C-0.67 0.67 -0.34 0.34 0 0 Z " fill="#FDF0CE" transform="translate(310,92)"/>
<path d="M0 0 C2.64 0 5.28 0 8 0 C8 3.96 8 7.92 8 12 C5.36 12 2.72 12 0 12 C0 8.04 0 4.08 0 0 Z " fill="#D6DDE5" transform="translate(203,90)"/>
<path d="M0 0 C2.64 0 5.28 0 8 0 C8 3.96 8 7.92 8 12 C5.36 12 2.72 12 0 12 C0 8.04 0 4.08 0 0 Z " fill="#D8DDE6" transform="translate(212,90)"/>
<path d="M0 0 C0.99 0 1.98 0 3 0 C3.83679277 2.62394306 4.66956942 5.24904384 5.5 7.875 C5.73847656 8.62136719 5.97695312 9.36773437 6.22265625 10.13671875 C8 15.7734375 8 15.7734375 8 18 C9.32 17.67 10.64 17.34 12 17 C11.34 18.32 10.68 19.64 10 21 C7.6875 20.875 7.6875 20.875 5 20 C1.68232214 15.20779865 0.94808546 9.64389696 0 4 C-0.99 4.33 -1.98 4.66 -3 5 C-1.125 1.125 -1.125 1.125 0 0 Z " fill="#253655" transform="translate(197,241)"/>
<path d="M0 0 C4.29 0 8.58 0 13 0 C13.66 1.98 14.32 3.96 15 6 C15.33 6 15.66 6 16 6 C16 8.31 16 10.62 16 13 C14.68 13 13.36 13 12 13 C11.855625 11.906875 11.71125 10.81375 11.5625 9.6875 C11.12228139 7.70711288 11.12228139 7.70711288 10 6 C7.68502038 4.86832781 5.50750793 4.26568178 2.99609375 3.703125 C2.33738281 3.47109375 1.67867188 3.2390625 1 3 C0.67 2.01 0.34 1.02 0 0 Z " fill="#FBF8DE" transform="translate(320,86)"/>
<path d="M0 0 C2.31 0 4.62 0 7 0 C7 4.29 7 8.58 7 13 C4.69 13 2.38 13 0 13 C0 8.71 0 4.42 0 0 Z " fill="#E6EDF3" transform="translate(256,104)"/>
<path d="M0 0 C2.31 0 4.62 0 7 0 C7 4.29 7 8.58 7 13 C4.69 13 2.38 13 0 13 C0 8.71 0 4.42 0 0 Z " fill="#EAF2F7" transform="translate(247,104)"/>
<path d="M0 0 C2 2 2 2 2.23046875 4.13671875 C2.14543039 9.18490511 1.86552185 14.02324935 1 19 C3.31 19.33 5.62 19.66 8 20 C8.33 20.99 8.66 21.98 9 23 C-0.405 21.515 -0.405 21.515 -10 20 C-10 19.34 -10 18.68 -10 18 C-6.04 17.505 -6.04 17.505 -2 17 C-2.04125 16.05125 -2.0825 15.1025 -2.125 14.125 C-2.14484508 9.29272342 -1.05774196 4.69372996 0 0 Z " fill="#FEF5D5" transform="translate(297,24)"/>
<path d="M0 0 C0.99 0.33 1.98 0.66 3 1 C3 2.65 3 4.3 3 6 C2.67 5.01 2.34 4.02 2 3 C-0.76675834 4.01728757 -1.83720903 4.71984535 -3.34033203 7.30664062 C-3.72560059 8.24701172 -4.11086914 9.18738281 -4.5078125 10.15625 C-4.93707031 11.17847656 -5.36632812 12.20070312 -5.80859375 13.25390625 C-6.24300781 14.32511719 -6.67742187 15.39632812 -7.125 16.5 C-7.9985064 18.61627936 -8.87592479 20.73094953 -9.7578125 22.84375 C-10.1408252 23.78412109 -10.52383789 24.72449219 -10.91845703 25.69335938 C-12 28 -12 28 -14 30 C-16.125 29.625 -16.125 29.625 -18 29 C-18.66 26.69 -19.32 24.38 -20 22 C-19.34 21.67 -18.68 21.34 -18 21 C-17.67 21.99 -17.34 22.98 -17 24 C-15.68 24 -14.36 24 -13 24 C-12.54109375 22.84242188 -12.0821875 21.68484375 -11.609375 20.4921875 C-10.98993863 18.95298197 -10.370127 17.41392742 -9.75 15.875 C-9.44964844 15.11445313 -9.14929688 14.35390625 -8.83984375 13.5703125 C-4.19045608 2.09522804 -4.19045608 2.09522804 0 0 Z " fill="#28394F" transform="translate(120,228)"/>
<path d="M0 0 C1.2065625 0.0309375 1.2065625 0.0309375 2.4375 0.0625 C2.4375 1.0525 2.4375 2.0425 2.4375 3.0625 C1.7775 3.0625 1.1175 3.0625 0.4375 3.0625 C0.4375 5.7025 0.4375 8.3425 0.4375 11.0625 C0.1075 11.0625 -0.2225 11.0625 -0.5625 11.0625 C-0.5625 8.4225 -0.5625 5.7825 -0.5625 3.0625 C-1.5525 3.0625 -2.5425 3.0625 -3.5625 3.0625 C-8.49546063 15.1751162 -12.93063875 27.49761357 -16.5625 40.0625 C-17.2225 40.0625 -17.8825 40.0625 -18.5625 40.0625 C-17.2284343 33.56873903 -15.50205816 27.38045102 -13.3125 21.125 C-13.00747559 20.25125732 -12.70245117 19.37751465 -12.38818359 18.47729492 C-5.78420438 0.14107816 -5.78420438 0.14107816 0 0 Z " fill="#29364C" transform="translate(99.5625,220.9375)"/>
<path d="M0 0 C4.70588235 0.70588235 4.70588235 0.70588235 6 2 C6.78317053 10.61487588 3.757799 17.8633015 -1 25 C-1.66 24.67 -2.32 24.34 -3 24 C-2.57847656 23.24976563 -2.15695313 22.49953125 -1.72265625 21.7265625 C1.84457481 15.06213553 3.96639289 9.5952071 4 2 C3.01 2 2.02 2 1 2 C0.01 4.97 -0.98 7.94 -2 11 C-2.66 11 -3.32 11 -4 11 C-4.33 12.32 -4.66 13.64 -5 15 C-5.66 15 -6.32 15 -7 15 C-5.77752941 9.09139213 -4.38520462 4.38520462 0 0 Z " fill="#303E55" transform="translate(173,220)"/>
<path d="M0 0 C1.670625 0.061875 1.670625 0.061875 3.375 0.125 C3.76827155 3.95658854 3.68724961 5.66883287 1.4765625 8.8984375 C0.65929687 9.75695313 -0.15796875 10.61546875 -1 11.5 C-1.81210937 12.37398437 -2.62421875 13.24796875 -3.4609375 14.1484375 C-5.625 16.125 -5.625 16.125 -7.625 16.125 C-7.25 14.1875 -7.25 14.1875 -6.625 12.125 C-5.965 11.795 -5.305 11.465 -4.625 11.125 C-4.76808594 10.18527344 -4.76808594 10.18527344 -4.9140625 9.2265625 C-5.02492188 8.40929688 -5.13578125 7.59203125 -5.25 6.75 C-5.36601562 5.93789063 -5.48203125 5.12578125 -5.6015625 4.2890625 C-5.60929687 3.57492188 -5.61703125 2.86078125 -5.625 2.125 C-3.625 0.125 -3.625 0.125 0 0 Z " fill="#FCF8DF" transform="translate(312.625,25.875)"/>
<path d="M0 0 C0.66 0 1.32 0 2 0 C2 0.66 2 1.32 2 2 C4.57213134 3.61949011 5.67669159 4.04408751 8.75 3.625 C9.86375 3.315625 9.86375 3.315625 11 3 C11 4.32 11 5.64 11 7 C7.02958963 7.22057835 5.76687864 6.88343932 2 5 C2 10.61 2 16.22 2 22 C3.485 19.525 3.485 19.525 5 17 C5.66 17.33 6.32 17.66 7 18 C6.65066406 18.73605469 6.30132812 19.47210938 5.94140625 20.23046875 C5.48636719 21.20628906 5.03132813 22.18210937 4.5625 23.1875 C4.11003906 24.15042969 3.65757812 25.11335938 3.19140625 26.10546875 C2.09618578 28.76631586 1.45045204 31.16784755 1 34 C0.67 34 0.34 34 0 34 C0 22.78 0 11.56 0 0 Z " fill="#BEBDAB" transform="translate(276,86)"/>
<path d="M0 0 C2.31 0 4.62 0 7 0 C7 3.96 7 7.92 7 12 C4.69 12 2.38 12 0 12 C0 8.04 0 4.08 0 0 Z " fill="#E5EBF3" transform="translate(247,90)"/>
<path d="M0 0 C0.99 0.33 1.98 0.66 3 1 C3.13277344 1.83144531 3.26554688 2.66289062 3.40234375 3.51953125 C3.57894531 4.60621094 3.75554687 5.69289062 3.9375 6.8125 C4.19853516 8.43091797 4.19853516 8.43091797 4.46484375 10.08203125 C4.93871921 13.04933356 4.93871921 13.04933356 6 16 C7.32 15.67 8.64 15.34 10 15 C9.25 16.9375 9.25 16.9375 8 19 C5.875 19.75 5.875 19.75 4 20 C-0.03854121 14.9079263 -0.10306393 11.28689984 0 5 C-0.66 5 -1.32 5 -2 5 C-1.125 1.125 -1.125 1.125 0 0 Z " fill="#243955" transform="translate(153,242)"/>
<path d="M0 0 C0.66 0 1.32 0 2 0 C2.13277344 0.75925781 2.26554688 1.51851562 2.40234375 2.30078125 C2.57894531 3.29464844 2.75554687 4.28851563 2.9375 5.3125 C3.11152344 6.29863281 3.28554687 7.28476563 3.46484375 8.30078125 C3.95746847 11.08189213 3.95746847 11.08189213 5 14 C2 14 2 14 -1 13 C-1.33 14.32 -1.66 15.64 -2 17 C-3.98 16.67 -5.96 16.34 -8 16 C-7.50628906 15.18015625 -7.01257813 14.3603125 -6.50390625 13.515625 C-5.86324219 12.43796875 -5.22257813 11.3603125 -4.5625 10.25 C-3.92441406 9.18265625 -3.28632813 8.1153125 -2.62890625 7.015625 C-1.30526901 4.56515029 -0.46702949 2.71008663 0 0 Z " fill="#F0F6F8" transform="translate(151,247)"/>
<path d="M0 0 C3.99169281 3.2273261 7.54894757 6.51726338 10.9375 10.375 C17.5918687 17.9336209 24.83958016 24.92527842 32 32 C27.7206192 32 25.87929687 29.49024717 22.9375 26.6875 C22.36185303 26.14714111 21.78620605 25.60678223 21.19311523 25.05004883 C15.83081866 19.95649812 10.86305425 14.57279731 6 9 C5.35675781 8.28328125 4.71351563 7.5665625 4.05078125 6.828125 C0 2.25801282 0 2.25801282 0 0 Z " fill="#3C4257" transform="translate(234,42)"/>
<path d="M0 0 C1.65 0 3.3 0 5 0 C7.21935073 3.72278187 9.02468937 6.77365392 10 11 C10.66 11.33 11.32 11.66 12 12 C11.67 12.99 11.34 13.98 11 15 C10.01 15 9.02 15 8 15 C8 15.66 8 16.32 8 17 C7.01 17 6.02 17 5 17 C4.97421875 16.33613281 4.9484375 15.67226563 4.921875 14.98828125 C4.56075344 9.36627513 4.06189685 6.19292578 0 2 C0 1.34 0 0.68 0 0 Z " fill="#FCF9E1" transform="translate(279,24)"/>
<path d="M0 0 C2.475 0.99 2.475 0.99 5 2 C4.71767279 4.10544013 4.4238102 6.20933589 4.125 8.3125 C3.96257812 9.48425781 3.80015625 10.65601562 3.6328125 11.86328125 C3 15 3 15 1 18 C0.01 18 -0.98 18 -2 18 C-2.74926071 14.33694766 -3.2380014 11.57644848 -2 8 C-1.34 8 -0.68 8 0 8 C0 5.36 0 2.72 0 0 Z " fill="#EFE6C2" transform="translate(293,104)"/>
<path d="M0 0 C0.99 0 1.98 0 3 0 C3 5.28 3 10.56 3 16 C2.67 16 2.34 16 2 16 C1.67 13.69 1.34 11.38 1 9 C-1.83669816 12.39080013 -1.83669816 12.39080013 -4.0625 16.1875 C-5 18 -5 18 -8 20 C-6.12849037 12.84870304 -3.50213658 6.50594543 0 0 Z " fill="#DAE2EE" transform="translate(96,224)"/>
<path d="M0 0 C0.33 0.99 0.66 1.98 1 3 C-0.109375 4.97265625 -0.109375 4.97265625 -1.75 7.0625 C-2.28109375 7.75472656 -2.8121875 8.44695312 -3.359375 9.16015625 C-5.91569704 12.02688882 -7.61348645 12.95080737 -11.4375 13.4375 C-15 13 -15 13 -17.4375 10.875 C-19.20830209 7.61672415 -19.33975517 5.65236803 -19 2 C-18.34 2 -17.68 2 -17 2 C-17 2.66 -17 3.32 -17 4 C-16.34 4 -15.68 4 -15 4 C-14.34 5.65 -13.68 7.3 -13 9 C-10.36 9 -7.72 9 -5 9 C-4.731875 8.443125 -4.46375 7.88625 -4.1875 7.3125 C-2.89877353 4.80287477 -1.47073522 2.40665764 0 0 Z " fill="#1F334B" transform="translate(445,252)"/>
<path d="M0 0 C3.05071175 -0.287803 5.96060262 -0.4472872 9 0 C11.10361696 2.4223468 12 3.78245634 12 7 C15.465 6.505 15.465 6.505 19 6 C19.33 6.99 19.66 7.98 20 9 C8.60583942 9 8.60583942 9 5.4375 6.1875 C4.53837891 5.40439453 4.53837891 5.40439453 3.62109375 4.60546875 C2 3 2 3 0 0 Z " fill="#EEF0E2" transform="translate(244,52)"/>
<path d="M0 0 C1.32 0.66 2.64 1.32 4 2 C4 8.27 4 14.54 4 21 C3.01 21.33 2.02 21.66 1 22 C0.637111 18.52168452 0.28615172 15.04226909 -0.0625 11.5625 C-0.16626953 10.56927734 -0.27003906 9.57605469 -0.37695312 8.55273438 C-0.47041016 7.60849609 -0.56386719 6.66425781 -0.66015625 5.69140625 C-0.74918213 4.81685791 -0.83820801 3.94230957 -0.92993164 3.04125977 C-0.9530542 2.36764404 -0.97617676 1.69402832 -1 1 C-0.67 0.67 -0.34 0.34 0 0 Z " fill="#1C3653" transform="translate(326,222)"/>
<path d="M0 0 C0.33 0.99 0.66 1.98 1 3 C-1.54968425 7.02065594 -3.69048181 8.2988744 -8 10 C-9.25827123 11.84982472 -9.25827123 11.84982472 -10 14 C-11 16 -11 16 -12 18 C-13.98 16.35 -15.96 14.7 -18 13 C-15 13 -15 13 -13 14 C-13.20625 13.4225 -13.4125 12.845 -13.625 12.25 C-14.10192594 9.38844436 -13.61204825 8.38176498 -12 6 C-9.94140625 5.3125 -9.94140625 5.3125 -7.5625 5 C-3.8037765 4.37193488 -3.8037765 4.37193488 -0.9375 1.875 C-0.628125 1.25625 -0.31875 0.6375 0 0 Z " fill="#FBF3D4" transform="translate(325,36)"/>
<path d="M0 0 C0.99 0.33 1.98 0.66 3 1 C2.835 1.825 2.67 2.65 2.5 3.5 C1.93976299 7.42165906 1.93508768 11.04034874 2 15 C2 15.99 2 16.98 2 18 C1.01 18.33 0.02 18.66 -1 19 C-1 19.66 -1 20.32 -1 21 C-1.66 21 -2.32 21 -3 21 C-3.02725341 19.2709226 -3.04650987 17.54171824 -3.0625 15.8125 C-3.07410156 14.84957031 -3.08570313 13.88664063 -3.09765625 12.89453125 C-3.00486622 10.14423487 -2.62111685 7.67520409 -2 5 C-1.34 5 -0.68 5 0 5 C0 3.35 0 1.7 0 0 Z " fill="#203252" transform="translate(168,230)"/>
<path d="M0 0 C1.32 0.33 2.64 0.66 4 1 C4 1.66 4 2.32 4 3 C4.66 3 5.32 3 6 3 C6.02705729 4.77074917 6.04642195 6.54161711 6.0625 8.3125 C6.07410156 9.29863281 6.08570313 10.28476563 6.09765625 11.30078125 C6 14 6 14 5 17 C3.35 17 1.7 17 0 17 C0.02320313 16.33613281 0.04640625 15.67226562 0.0703125 14.98828125 C0.23624305 8.27138984 0.23624305 8.27138984 -2 2 C0.5 3.125 0.5 3.125 3 5 C3.3125 8.1875 3.3125 8.1875 3 11 C3.66 8.69 4.32 6.38 5 4 C4.34 4 3.68 4 3 4 C3 3.34 3 2.68 3 2 C2.01 1.67 1.02 1.34 0 1 C0 0.67 0 0.34 0 0 Z " fill="#FBF6D9" transform="translate(306,101)"/>
<path d="M0 0 C1.98 0 3.96 0 6 0 C6 3.63 6 7.26 6 11 C4.02 11 2.04 11 0 11 C0 7.37 0 3.74 0 0 Z " fill="#F6FCFD" transform="translate(257,91)"/>
<path d="M0 0 C0.99 0 1.98 0 3 0 C3.16781295 2.60409745 3.33429651 5.2082682 3.5 7.8125 C3.54769531 8.55048828 3.59539062 9.28847656 3.64453125 10.04882812 C3.83390613 13.03824588 4 16.00374574 4 19 C3.01 19.33 2.02 19.66 1 20 C-1.657623 13.27777713 -0.78767638 7.07844318 0 0 Z " fill="#1D3553" transform="translate(387,243)"/>
<path d="M0 0 C0.99 1.485 0.99 1.485 2 3 C2.598125 2.649375 3.19625 2.29875 3.8125 1.9375 C6 1 6 1 9 2 C8.4225 2.99 7.845 3.98 7.25 5 C5.00295415 8.92430507 2.99355217 12.94169736 1 17 C0.67 17 0.34 17 0 17 C0 11.39 0 5.78 0 0 Z " fill="#D8E0EB" transform="translate(187,241)"/>
<path d="M0 0 C0.66 0.66 1.32 1.32 2 2 C-0.97 8.93 -0.97 8.93 -4 16 C-4.66 16 -5.32 16 -6 16 C-6 11.05 -6 6.1 -6 1 C-5.67 1.66 -5.34 2.32 -5 3 C-3.35 2.01 -1.7 1.02 0 0 Z " fill="#D9E2EA" transform="translate(396,242)"/>
<path d="M0 0 C2.5709302 2.23559147 3.39979685 3.66803112 4 7 C4.14338806 9.28869404 4.22041303 11.58200956 4.25 13.875 C4.27578125 15.06867188 4.3015625 16.26234375 4.328125 17.4921875 C3.971478 21.3049138 2.91012905 23.71256738 1 27 C0.34 27 -0.32 27 -1 27 C-1.33 27.99 -1.66 28.98 -2 30 C-2.33 29.34 -2.66 28.68 -3 28 C-2.05719096 25.6429774 -1.05352843 23.30965848 0 21 C2.20370931 14.38887206 1.20504941 6.77840295 0 0 Z " fill="#EEC061" transform="translate(316,59)"/>
<path d="M0 0 C0.99 0.33 1.98 0.66 3 1 C3.268125 1.61875 3.53625 2.2375 3.8125 2.875 C5.51576924 5.92295549 7.8737675 6.64076848 11 8 C10.34 9.98 9.68 11.96 9 14 C8.34 14 7.68 14 7 14 C6.67 14.66 6.34 15.32 6 16 C5 15 5 15 4.90234375 13.15234375 C4.93489583 11.1015625 4.96744792 9.05078125 5 7 C2.525 6.01 2.525 6.01 0 5 C0 3.35 0 1.7 0 0 Z " fill="#FBF8E5" transform="translate(315,96)"/>
<path d="M0 0 C3.66060821 0.58536753 5.54535164 2.083239 8.25 4.5625 C8.95640625 5.20316406 9.6628125 5.84382813 10.390625 6.50390625 C10.92171875 6.99761719 11.4528125 7.49132812 12 8 C11.67 8.66 11.34 9.32 11 10 C8.9375 10.625 8.9375 10.625 7 11 C6.34 10.01 5.68 9.02 5 8 C4.34 8 3.68 8 3 8 C1.63838689 7.03886134 0.30144802 6.04115841 -1 5 C-0.67 3.35 -0.34 1.7 0 0 Z " fill="#F3F4F3" transform="translate(257,70)"/>
<path d="M0 0 C0.103125 0.78375 0.20625 1.5675 0.3125 2.375 C0.77595022 5.33045181 0.77595022 5.33045181 4 7 C1.36 7 -1.28 7 -4 7 C-4 11.29 -4 15.58 -4 20 C-4.33 20 -4.66 20 -5 20 C-5.33 13.73 -5.66 7.46 -6 1 C-4 0 -4 0 0 0 Z " fill="#3B4C71" transform="translate(297,162)"/>
<path d="M0 0 C3.5897018 1.53844363 6.03837897 3.71511548 8.875 6.375 C12.43218522 9.64276926 15.87276881 12.50193901 20 15 C18.25 15.6875 18.25 15.6875 16 16 C13.75 14.6875 13.75 14.6875 12 13 C12 12.34 12 11.68 12 11 C11.34 11 10.68 11 10 11 C10 13.64 10 16.28 10 19 C9.67 19 9.34 19 9 19 C9.00902344 18.443125 9.01804687 17.88625 9.02734375 17.3125 C8.78456997 11.06371388 6.95124563 8.04890694 2.59375 3.62890625 C1 2 1 2 0 0 Z " fill="#3E302D" transform="translate(266,75)"/>
<path d="M0 0 C0.65226562 0.0721875 1.30453125 0.144375 1.9765625 0.21875 C6.6737056 0.71756166 11.26852656 1.12451246 16 1 C16.33 1.66 16.66 2.32 17 3 C15.82421875 5.015625 15.82421875 5.015625 14 7 C11.51953125 7.171875 11.51953125 7.171875 8.8125 6.75 C7.91144531 6.62109375 7.01039063 6.4921875 6.08203125 6.359375 C5.39496094 6.24078125 4.70789063 6.1221875 4 6 C4 5.67 4 5.34 4 5 C6.64 4.67 9.28 4.34 12 4 C11.30132812 3.93941406 10.60265625 3.87882812 9.8828125 3.81640625 C8.97273438 3.73261719 8.06265625 3.64882812 7.125 3.5625 C6.22007812 3.48128906 5.31515625 3.40007812 4.3828125 3.31640625 C2 3 2 3 0 2 C0 1.34 0 0.68 0 0 Z " fill="#FCF7E8" transform="translate(326,64)"/>
<path d="M0 0 C0.66 0.33 1.32 0.66 2 1 C1.360625 1.928125 0.72125 2.85625 0.0625 3.8125 C-2.08622093 6.84219943 -2.08622093 6.84219943 -3 10 C-5.64 10 -8.28 10 -11 10 C-11 9.34 -11 8.68 -11 8 C-10.34 8 -9.68 8 -9 8 C-8.938125 7.38125 -8.87625 6.7625 -8.8125 6.125 C-8 4 -8 4 -5.625 2.875 C-4.325625 2.441875 -4.325625 2.441875 -3 2 C-2.01 1.34 -1.02 0.68 0 0 Z " fill="#F7EFD2" transform="translate(331,48)"/>
<path d="M0 0 C1.32 0 2.64 0 4 0 C3.73334769 3.91090062 3.40818918 5.581069 0.625 8.4375 C-0.24125 8.953125 -1.1075 9.46875 -2 10 C-2.99 9.67 -3.98 9.34 -5 9 C-4.3566152 7.686298 -3.71021785 6.37407102 -3.0625 5.0625 C-2.70285156 4.33160156 -2.34320313 3.60070312 -1.97265625 2.84765625 C-1 1 -1 1 0 0 Z " fill="#DDE8F1" transform="translate(435,240)"/>
<path d="M0 0 C3.63 0.33 7.26 0.66 11 1 C11 1.66 11 2.32 11 3 C13.64 3.33 16.28 3.66 19 4 C19 4.33 19 4.66 19 5 C16.39521117 5.0809313 13.79293347 5.14045434 11.1875 5.1875 C10.08051758 5.22520508 10.08051758 5.22520508 8.95117188 5.26367188 C3.49005469 5.33780469 3.49005469 5.33780469 0.98828125 3.61328125 C0 2 0 2 0 0 Z " fill="#EDE0B7" transform="translate(321,75)"/>
<path d="M0 0 C3.875 1.75 3.875 1.75 5 4 C5.039992 5.99960012 5.04346799 8.00047242 5 10 C2.68001641 9.60000283 1.13676576 9.09432121 -0.8125 7.75 C-2 6 -2 6 -1.75 3.375 C-1 1 -1 1 0 0 Z " fill="#D8E4EB" transform="translate(376,240)"/>
<path d="M0 0 C1.32 0 2.64 0 4 0 C3.54738642 1.43931117 3.08767021 2.87638999 2.625 4.3125 C2.36976562 5.11300781 2.11453125 5.91351563 1.8515625 6.73828125 C1 9 1 9 -1 12 C-1.66 12 -2.32 12 -3 12 C-3.6875 8.6875 -3.6875 8.6875 -4 5 C-2.625 3.1875 -2.625 3.1875 -1 2 C-0.67 1.34 -0.34 0.68 0 0 Z " fill="#E1ECF3" transform="translate(108,241)"/>
<path d="M0 0 C0.99 0.33 1.98 0.66 3 1 C5.86430864 1.30239035 8.72919934 1.50765769 11.6015625 1.71875 C14 2 14 2 15 3 C16.66617115 3.04063832 18.33388095 3.042721 20 3 C20 4.65 20 6.3 20 8 C17.03 8 14.06 8 11 8 C11.66 7.34 12.32 6.68 13 6 C12.34 5.67 11.68 5.34 11 5 C11 4.34 11 3.68 11 3 C10.37351562 3.01160156 9.74703125 3.02320312 9.1015625 3.03515625 C8.28429687 3.04417969 7.46703125 3.05320312 6.625 3.0625 C5.81289063 3.07410156 5.00078125 3.08570312 4.1640625 3.09765625 C2 3 2 3 0 2 C0 1.34 0 0.68 0 0 Z " fill="#FBF7E5" transform="translate(321,73)"/>
<path d="M0 0 C1.32 0 2.64 0 4 0 C3.7312159 3.94216678 3.44655191 5.56489814 0.5625 8.375 C-2 10 -2 10 -4 10 C-3.43804235 6.06629643 -2.44407389 3.16824393 0 0 Z " fill="#E6F1F7" transform="translate(221,240)"/>
<path d="M0 0 C0.33 0 0.66 0 1 0 C1 5.28 1 10.56 1 16 C2.98 16 4.96 16 7 16 C7 16.33 7 16.66 7 17 C2.79405774 17.72795155 0.19895255 18.04973814 -4 17 C-4 12.05 -4 7.1 -4 2 C-3.67 2 -3.34 2 -3 2 C-2.67 5.96 -2.34 9.92 -2 14 C-1.34 14 -0.68 14 0 14 C0 9.38 0 4.76 0 0 Z " fill="#62768E" transform="translate(330,229)"/>
<path d="M0 0 C2.82726947 2.63228537 3.47784461 5.2404812 4 9 C3.01 9.495 3.01 9.495 2 10 C1.5978125 8.2984375 1.5978125 8.2984375 1.1875 6.5625 C0.795625 5.386875 0.40375 4.21125 0 3 C-0.99 2.67 -1.98 2.34 -3 2 C-3.66 3.98 -4.32 5.96 -5 8 C-5.99 7.67 -6.98 7.34 -8 7 C-8 6.34 -8 5.68 -8 5 C-8.99 5.33 -9.98 5.66 -11 6 C-9.1565463 0.46963891 -5.63629351 -0.83944797 0 0 Z " fill="#27334D" transform="translate(379,239)"/>
<path d="M0 0 C0.33 0 0.66 0 1 0 C1.47617251 6.69286912 1.39973696 10.77531236 -3 16 C-3.99 15.67 -4.98 15.34 -6 15 C-6.73046875 12.93359375 -6.73046875 12.93359375 -7.1875 10.4375 C-7.34605469 9.61121094 -7.50460938 8.78492188 -7.66796875 7.93359375 C-7.77753906 7.29550781 -7.88710937 6.65742188 -8 6 C-5.53199953 7.15173355 -3.95216435 8.04783565 -2 10 C-0.41727399 8.41727399 -0.65264253 6.61965997 -0.4375 4.4375 C-0.35371094 3.61121094 -0.26992187 2.78492188 -0.18359375 1.93359375 C-0.12300781 1.29550781 -0.06242188 0.65742188 0 0 Z " fill="#D9E4EF" transform="translate(164,243)"/>
<path d="M0 0 C0.99 0.33 1.98 0.66 3 1 C3 3.97 3 6.94 3 10 C2.67 9.34 2.34 8.68 2 8 C0.02 8.33 -1.96 8.66 -4 9 C-3.71848913 7.68528432 -3.42446661 6.37324233 -3.125 5.0625 C-2.96257812 4.33160156 -2.80015625 3.60070312 -2.6328125 2.84765625 C-2 1 -2 1 0 0 Z M-5 9 C-5 9.99 -5 10.98 -5 12 C-5.66 11.67 -6.32 11.34 -7 11 C-6.34 10.34 -5.68 9.68 -5 9 Z " fill="#E0E8EE" transform="translate(384,250)"/>
<path d="M0 0 C0.99 0 1.98 0 3 0 C3.02689216 1.47906892 3.04634621 2.95827483 3.0625 4.4375 C3.07410156 5.26121094 3.08570313 6.08492187 3.09765625 6.93359375 C3 9 3 9 2 10 C-0.67058851 10.14115161 -3.32432238 10.04247107 -6 10 C-6 9.01 -6 8.02 -6 7 C-5.38125 6.95875 -4.7625 6.9175 -4.125 6.875 C-3.42375 6.58625 -2.7225 6.2975 -2 6 C-0.6954344 3.00384054 -0.6954344 3.00384054 0 0 Z " fill="#FDFBF0" transform="translate(293,32)"/>
<path d="M0 0 C1.32 0.33 2.64 0.66 4 1 C3.67 1.61875 3.34 2.2375 3 2.875 C1.85806765 4.91018344 1.85806765 4.91018344 2 7 C3.98 7 5.96 7 8 7 C8 7.66 8 8.32 8 9 C8.66 9.33 9.32 9.66 10 10 C7.23749964 11.38125018 5.05268901 11.19079306 2 11 C0 9 0 9 -0.1953125 6.8359375 C-0.17210937 6.02382813 -0.14890625 5.21171875 -0.125 4.375 C-0.10695313 3.55773437 -0.08890625 2.74046875 -0.0703125 1.8984375 C-0.04710937 1.27195313 -0.02390625 0.64546875 0 0 Z " fill="#EBF2F8" transform="translate(430,251)"/>
<path d="M0 0 C0.99 0 1.98 0 3 0 C3.63019694 10.15317287 3.63019694 10.15317287 1 13.6875 C0.34 14.120625 -0.32 14.55375 -1 15 C-2.19126781 11.42619658 -1.7349445 9.49116698 -1.0625 5.8125 C-0.86785156 4.72582031 -0.67320312 3.63914063 -0.47265625 2.51953125 C-0.31667969 1.68808594 -0.16070312 0.85664063 0 0 Z " fill="#293A58" transform="translate(268,241)"/>
<path d="M0 0 C0 0.33 0 0.66 0 1 C-5.72934145 1.99640721 -11.18310013 2.07968356 -17 2 C-17 6.29 -17 10.58 -17 15 C-16.34 15.33 -15.68 15.66 -15 16 C-15.99 16 -16.98 16 -18 16 C-18.02685095 13.52076199 -18.04676547 11.0418116 -18.0625 8.5625 C-18.07506836 7.50192383 -18.07506836 7.50192383 -18.08789062 6.41992188 C-18.09653588 4.61306441 -18.05220011 2.80612397 -18 1 C-14.19766804 -2.80233196 -4.78223216 -0.71954882 0 0 Z " fill="#171F3D" transform="translate(220,102)"/>
<path d="M0 0 C0 2.83967231 -0.40267181 5.23735711 -1 8 C-1.66 8 -2.32 8 -3 8 C-3.33 11.96 -3.66 15.92 -4 20 C-2.68 20.66 -1.36 21.32 0 22 C0 22.99 0 23.98 0 25 C-2.31 23.02 -4.62 21.04 -7 19 C-3.45283019 3.45283019 -3.45283019 3.45283019 0 0 Z " fill="#E8C373" transform="translate(271,54)"/>
<path d="M0 0 C0.66 0.66 1.32 1.32 2 2 C1.21625 2.556875 0.4325 3.11375 -0.375 3.6875 C-3.08704858 6.07668565 -3.96133543 7.60073413 -5 11 C-5.99 11 -6.98 11 -8 11 C-8 11.66 -8 12.32 -8 13 C-8.99 13 -9.98 13 -11 13 C-11.33 13.66 -11.66 14.32 -12 15 C-12.99 14.67 -13.98 14.34 -15 14 C-14.16855469 13.24074219 -13.33710938 12.48148438 -12.48046875 11.69921875 C-11.38277925 10.69534886 -10.28512484 9.6914406 -9.1875 8.6875 C-8.64029297 8.18798828 -8.09308594 7.68847656 -7.52929688 7.17382812 C-4.96878163 4.83056872 -2.42060466 2.48855146 0 0 Z " fill="#E8EEF6" transform="translate(212,69)"/>
<path d="M0 0 C0.66 0 1.32 0 2 0 C2.33 3.96 2.66 7.92 3 12 C2.01 11.67 1.02 11.34 0 11 C-1.98 13.64 -3.96 16.28 -6 19 C-6.66 18.34 -7.32 17.68 -8 17 C-7.21625 16.2575 -6.4325 15.515 -5.625 14.75 C-1.08410953 9.99287665 -0.63911811 6.39118107 0 0 Z " fill="#1F3456" transform="translate(232,244)"/>
<path d="M0 0 C0.66 0.33 1.32 0.66 2 1 C2.4140625 3.06640625 2.4140625 3.06640625 2.625 5.5625 C2.69976562 6.38878906 2.77453125 7.21507812 2.8515625 8.06640625 C2.90054688 8.70449219 2.94953125 9.34257812 3 10 C2.67 9.34 2.34 8.68 2 8 C1.01 8 0.02 8 -1 8 C-1.99 9.485 -1.99 9.485 -3 11 C-3.66 11 -4.32 11 -5 11 C-4.54917531 9.53932801 -4.08906463 8.08151968 -3.625 6.625 C-3.36976563 5.81289062 -3.11453125 5.00078125 -2.8515625 4.1640625 C-2 2 -2 2 0 0 Z " fill="#DFE5F0" transform="translate(196,244)"/>
<path d="M0 0 C0.99 0 1.98 0 3 0 C3.33 4.29 3.66 8.58 4 13 C4.66 12.67 5.32 12.34 6 12 C8.3329866 11.95977609 10.66706666 11.95679753 13 12 C10.09907498 13.93395001 9.10325263 14.30131941 5.8125 14.625 C4.554375 14.74875 3.29625 14.8725 2 15 C1.93941406 14.16855469 1.87882812 13.33710937 1.81640625 12.48046875 C1.73261719 11.39378906 1.64882813 10.30710937 1.5625 9.1875 C1.48128906 8.10855469 1.40007812 7.02960937 1.31640625 5.91796875 C1.09787539 2.94010095 1.09787539 2.94010095 0 0 Z " fill="#FDF7D9" transform="translate(273,32)"/>
<path d="M0 0 C0.99 0 1.98 0 3 0 C3 2.64 3 5.28 3 8 C1.02 8.99 -0.96 9.98 -3 11 C-2.53199289 6.94393835 -2.12046792 3.53411321 0 0 Z " fill="#E8F0F6" transform="translate(174,222)"/>
<path d="M0 0 C0.66 0.99 1.32 1.98 2 3 C1.42578125 5.4453125 1.42578125 5.4453125 0.3125 8.125 C-0.21923828 9.45917969 -0.21923828 9.45917969 -0.76171875 10.8203125 C-2 13 -2 13 -5 14 C-4.58669586 8.00708997 -3.68096635 4.74963401 0 0 Z " fill="#32415D" transform="translate(367,243)"/>
<path d="M0 0 C0.33 0 0.66 0 1 0 C1 2.64 1 5.28 1 8 C2.98 8.495 2.98 8.495 5 9 C4.01 11.97 3.02 14.94 2 18 C0 16 0 16 -0.1953125 12.3046875 C-0.182009 10.82799892 -0.15814835 9.35137642 -0.125 7.875 C-0.11146484 6.74384766 -0.11146484 6.74384766 -0.09765625 5.58984375 C-0.0740687 3.72642746 -0.03819719 1.86317407 0 0 Z " fill="#CCD6E1" transform="translate(271,241)"/>
<path d="M0 0 C2.64 0.66 5.28 1.32 8 2 C8 2.99 8 3.98 8 5 C7.42024414 4.83250244 6.84048828 4.66500488 6.24316406 4.49243164 C2.74568625 3.72464619 -0.71014851 4.16544428 -4.25 4.4375 C-4.99507813 4.48970703 -5.74015625 4.54191406 -6.5078125 4.59570312 C-8.33894861 4.7248217 -10.16953813 4.86165114 -12 5 C-12 4.34 -12 3.68 -12 3 C-7.9472484 2.01751476 -4.16138263 1.91840426 0 2 C0 1.34 0 0.68 0 0 Z " fill="#4C5768" transform="translate(349,241)"/>
<path d="M0 0 C0.33 0 0.66 0 1 0 C1 6.93 1 13.86 1 21 C-0.98 21 -2.96 21 -5 21 C-5.66 20.01 -6.32 19.02 -7 18 C-5.68 17.67 -4.36 17.34 -3 17 C-3 17.66 -3 18.32 -3 19 C-2.34 19 -1.68 19 -1 19 C-1.01160156 17.96359375 -1.02320313 16.9271875 -1.03515625 15.859375 C-1.04453837 14.48958514 -1.05363812 13.11979332 -1.0625 11.75 C-1.07506836 10.72712891 -1.07506836 10.72712891 -1.08789062 9.68359375 C-1.10428392 6.30657446 -1.05628768 3.22708361 0 0 Z " fill="#E7F1F5" transform="translate(325,225)"/>
<path d="M0 0 C0.66 0 1.32 0 2 0 C2 0.66 2 1.32 2 2 C4.57213134 3.61949011 5.67669159 4.04408751 8.75 3.625 C9.86375 3.315625 9.86375 3.315625 11 3 C11 4.32 11 5.64 11 7 C7.37471432 7.20140476 5.13498292 6.85776765 2 5 C2 5.99 2 6.98 2 8 C1.34 8 0.68 8 0 8 C0 5.36 0 2.72 0 0 Z " fill="#C3A65A" transform="translate(276,86)"/>
<path d="M0 0 C0.33 0.99 0.66 1.98 1 3 C-0.9375 5.6875 -0.9375 5.6875 -3 8 C-5.97 7.505 -5.97 7.505 -9 7 C-9.33 5.68 -9.66 4.36 -10 3 C-8.68 2.67 -7.36 2.34 -6 2 C-5.67 2.66 -5.34 3.32 -5 4 C-4.01 4.33 -3.02 4.66 -2 5 C-1.34 3.35 -0.68 1.7 0 0 Z " fill="#2F3F55" transform="translate(265,256)"/>
<path d="M0 0 C0.66 0 1.32 0 2 0 C2.13277344 0.75925781 2.26554688 1.51851562 2.40234375 2.30078125 C2.57894531 3.29464844 2.75554687 4.28851563 2.9375 5.3125 C3.19853516 6.79169922 3.19853516 6.79169922 3.46484375 8.30078125 C3.95746847 11.08189213 3.95746847 11.08189213 5 14 C4.01 14 3.02 14 2 14 C2 13.01 2 12.02 2 11 C1.01 10.67 0.02 10.34 -1 10 C-0.67 6.7 -0.34 3.4 0 0 Z " fill="#DCE5EA" transform="translate(151,247)"/>
<path d="M0 0 C0.99 0.33 1.98 0.66 3 1 C3 2.65 3 4.3 3 6 C2.67 5.01 2.34 4.02 2 3 C-0.96676187 4.05231297 -1.89604626 4.81780739 -3.484375 7.6015625 C-3.90203125 8.59929687 -4.3196875 9.59703125 -4.75 10.625 C-5.39195313 12.12933594 -5.39195313 12.12933594 -6.046875 13.6640625 C-6.36140625 14.43492187 -6.6759375 15.20578125 -7 16 C-8.01299606 13.34397374 -8.07672553 12.21604293 -7.109375 9.4921875 C-6.66078125 8.62851563 -6.2121875 7.76484375 -5.75 6.875 C-5.31171875 6.00617188 -4.8734375 5.13734375 -4.421875 4.2421875 C-3 2 -3 2 0 0 Z " fill="#344156" transform="translate(120,228)"/>
<path d="M0 0 C3.4994371 0.67793523 6.77748309 1.45276506 10 3 C11.54320386 5.44521738 11.66722092 7.06045147 12 10 C11.34 10 10.68 10 10 10 C9.67 9.34 9.34 8.68 9 8 C8.05125 7.525625 7.1025 7.05125 6.125 6.5625 C3.44650182 5.22325091 1.81722631 4.3220114 0 2 C0 1.34 0 0.68 0 0 Z " fill="#FDF7E5" transform="translate(320,88)"/>
<path d="M0 0 C0.66 0.66 1.32 1.32 2 2 C0.87895467 3.31587941 -0.24696965 4.62760353 -1.375 5.9375 C-2.00148437 6.66839844 -2.62796875 7.39929688 -3.2734375 8.15234375 C-5 10 -5 10 -7 11 C-7.6875 9.1875 -7.6875 9.1875 -8 7 C-6.75 5.25 -6.75 5.25 -5 4 C-4.01 4 -3.02 4 -2 4 C-1.34 2.68 -0.68 1.36 0 0 Z " fill="#EAF2F5" transform="translate(216,58)"/>
<path d="M0 0 C0.66 1.32 1.32 2.64 2 4 C-0.64 4.66 -3.28 5.32 -6 6 C-6.33 7.32 -6.66 8.64 -7 10 C-7.66 10.99 -8.32 11.98 -9 13 C-9.33 11.02 -9.66 9.04 -10 7 C-9.34 7 -8.68 7 -8 7 C-7.566875 6.21625 -7.13375 5.4325 -6.6875 4.625 C-4.73201719 1.58313785 -3.39788151 1.01018099 0 0 Z " fill="#FCFAE6" transform="translate(323,42)"/>
<path d="M0 0 C1.32 0.33 2.64 0.66 4 1 C1.525 5.455 1.525 5.455 -1 10 C-3 9 -3 9 -3.875 6.6875 C-4 4 -4 4 -2.3125 1.625 C-1.549375 1.08875 -0.78625 0.5525 0 0 Z " fill="#EBF1F5" transform="translate(93,220)"/>
<path d="M0 0 C0.53625 0.66 1.0725 1.32 1.625 2 C3.89958592 4.31024799 3.89958592 4.31024799 7.25 4.25 C8.1575 4.1675 9.065 4.085 10 4 C8.875 5.5 8.875 5.5 7 7 C3.75055942 7.40618007 1.85181176 7.59626824 -0.875 5.6875 C-2 4 -2 4 -2 1 C-1.34 0.67 -0.68 0.34 0 0 Z " fill="#233248" transform="translate(215,258)"/>
<path d="M0 0 C0.99 0.33 1.98 0.66 3 1 C4.1875 4.0625 4.1875 4.0625 5 7 C-0.75 7.125 -0.75 7.125 -3 6 C-3.33 6.66 -3.66 7.32 -4 8 C-4.33 7.01 -4.66 6.02 -5 5 C-3.35 3.35 -1.7 1.7 0 0 Z " fill="#E7F5F8" transform="translate(164,256)"/>
<path d="M0 0 C0.33 0.99 0.66 1.98 1 3 C-0.32 3.99 -1.64 4.98 -3 6 C-3.66 5.67 -4.32 5.34 -5 5 C-5 4.34 -5 3.68 -5 3 C-5.99 3.99 -6.98 4.98 -8 6 C-7.625 3.0625 -7.625 3.0625 -7 0 C-4.3333581 -1.33332095 -2.83319697 -0.67102033 0 0 Z " fill="#F8F5DB" transform="translate(286,102)"/>
<path d="M0 0 C2.3125 -0.3125 2.3125 -0.3125 5 0 C6.81883009 2.3832946 8 3.95818337 8 7 C11.465 6.505 11.465 6.505 15 6 C15.33 6.99 15.66 7.98 16 9 C10.71895425 9.52810458 10.71895425 9.52810458 8 9 C5.75 6.0625 5.75 6.0625 4 3 C1.87880872 2.04768403 1.87880872 2.04768403 0 2 C0 1.34 0 0.68 0 0 Z " fill="#DBCB9A" transform="translate(248,52)"/>
<path d="M0 0 C3.43662064 1.47283742 5.83815158 2.91164511 8 6 C8.3380398 9.35927054 8.23112958 12.63578059 8 16 C7.34 16 6.68 16 6 16 C5.95101563 15.28972656 5.90203125 14.57945313 5.8515625 13.84765625 C5.77679688 12.92855469 5.70203125 12.00945313 5.625 11.0625 C5.52058594 9.68771484 5.52058594 9.68771484 5.4140625 8.28515625 C5.27742188 7.53105469 5.14078125 6.77695312 5 6 C4.34 5.67 3.68 5.34 3 5 C3 4.34 3 3.68 3 3 C2.01 2.67 1.02 2.34 0 2 C0 1.34 0 0.68 0 0 Z " fill="#E0CFA5" transform="translate(267,29)"/>
<path d="M0 0 C0.66 0 1.32 0 2 0 C2.78368469 8.96883593 2.78368469 8.96883593 -0.375 13.125 C-3 15 -3 15 -5 15 C-4.6875 13.125 -4.6875 13.125 -4 11 C-3.01 10.34 -2.02 9.68 -1 9 C-0.42006301 6.80545319 -0.42006301 6.80545319 -0.3125 4.375 C-0.24675781 3.55773437 -0.18101562 2.74046875 -0.11328125 1.8984375 C-0.07589844 1.27195312 -0.03851563 0.64546875 0 0 Z " fill="#E0D4AA" transform="translate(310,27)"/>
<path d="M0 0 C0.66 0 1.32 0 2 0 C4.03684712 4.07369424 4.0257259 6.58937864 3 11 C2.34 11 1.68 11 1 11 C0.67 8.69 0.34 6.38 0 4 C-0.66 4 -1.32 4 -2 4 C-1.34 2.68 -0.68 1.36 0 0 Z " fill="#243953" transform="translate(413,243)"/>
<path d="M0 0 C0.99 0 1.98 0 3 0 C3.33 0.99 3.66 1.98 4 3 C3.01 3 2.02 3 1 3 C0.67 4.65 0.34 6.3 0 8 C-0.99 8.33 -1.98 8.66 -3 9 C-3.66 6.69 -4.32 4.38 -5 2 C-3.68 2.33 -2.36 2.66 -1 3 C-0.67 2.01 -0.34 1.02 0 0 Z M-3 4 C-2 6 -2 6 -2 6 Z " fill="#DBE4EC" transform="translate(386,240)"/>
<path d="M0 0 C0.99 0.33 1.98 0.66 3 1 C-0.66575222 4.99900242 -4.08927402 7.63557638 -9 10 C-9.99 9.67 -10.98 9.34 -12 9 C-11.21753906 8.43410156 -10.43507812 7.86820312 -9.62890625 7.28515625 C-8.61699219 6.55167969 -7.60507813 5.81820312 -6.5625 5.0625 C-5.55316406 4.33160156 -4.54382813 3.60070312 -3.50390625 2.84765625 C-1.17707392 1.22678115 -1.17707392 1.22678115 0 0 Z " fill="#3E465B" transform="translate(192,84)"/>
<path d="M0 0 C1.65 0.33 3.3 0.66 5 1 C5 2.65 5 4.3 5 6 C3.68 6.33 2.36 6.66 1 7 C1 6.01 1 5.02 1 4 C-1.475 5.485 -1.475 5.485 -4 7 C-3.67 5.68 -3.34 4.36 -3 3 C-2.01 3 -1.02 3 0 3 C0 2.01 0 1.02 0 0 Z " fill="#FCF7DD" transform="translate(323,35)"/>
<path d="M0 0 C2 2 2 2 2.046875 3.98828125 C1.49925341 8.27558189 0.90566194 12.06163199 -1 16 C-1.33 16 -1.66 16 -2 16 C-1.85764543 14.27054347 -1.71095618 12.54144346 -1.5625 10.8125 C-1.48128906 9.84957031 -1.40007812 8.88664062 -1.31640625 7.89453125 C-1.02333849 5.21350398 -0.57296246 2.6337014 0 0 Z " fill="#DCCF97" transform="translate(297,24)"/>
<path d="M0 0 C0.33 0.99 0.66 1.98 1 3 C-1.14419403 7.0707443 -3.7910725 10.36925522 -7.875 12.5 C-8.57625 12.665 -9.2775 12.83 -10 13 C-10.66 12.01 -11.32 11.02 -12 10 C-10.329375 9.87625 -10.329375 9.87625 -8.625 9.75 C-5.00760547 9.42942282 -5.00760547 9.42942282 -3.75 7.25 C-3.5025 6.5075 -3.255 5.765 -3 5 C-2.01120795 3.32665961 -1.01351664 1.65848177 0 0 Z " fill="#545D6B" transform="translate(445,252)"/>
<path d="M0 0 C0.33 0 0.66 0 1 0 C2.43023178 4.67209049 3.40380045 9.13103697 4 14 C3.01 14 2.02 14 1 14 C0 13 0 13 -0.09765625 10.05859375 C-0.08605469 8.86363281 -0.07445312 7.66867188 -0.0625 6.4375 C-0.05347656 5.23996094 -0.04445312 4.04242188 -0.03515625 2.80859375 C-0.02355469 1.88175781 -0.01195312 0.95492187 0 0 Z " fill="#D1DFEB" transform="translate(139,246)"/>
<path d="M0 0 C3.63 0.66 7.26 1.32 11 2 C11.99 4.97 12.98 7.94 14 11 C13.34 11 12.68 11 12 11 C11.855625 10.071875 11.71125 9.14375 11.5625 8.1875 C10.36402045 4.90535774 10.36402045 4.90535774 7.8984375 4.00390625 C6.27670738 3.50709052 4.64172987 3.05137578 2.99609375 2.640625 C2.33738281 2.42921875 1.67867188 2.2178125 1 2 C0.67 1.34 0.34 0.68 0 0 Z " fill="#D8CDAB" transform="translate(320,87)"/>
<path d="M0 0 C2.88164201 1.33586054 5.25276708 2.83637331 7.6875 4.875 C8.28949219 5.36742187 8.89148438 5.85984375 9.51171875 6.3671875 C11.20487499 8.22477098 11.60184921 9.54739113 12 12 C11.34 11.67 10.68 11.34 10 11 C10 10.34 10 9.68 10 9 C9.34 9 8.68 9 8 9 C7.67 8.34 7.34 7.68 7 7 C6.195625 6.731875 5.39125 6.46375 4.5625 6.1875 C2 5 2 5 0.6875 2.375 C0.460625 1.59125 0.23375 0.8075 0 0 Z " fill="#EDBF5C" transform="translate(304,47)"/>
<path d="M0 0 C0.66 0 1.32 0 2 0 C2.33 2.97 2.66 5.94 3 9 C2.34 9 1.68 9 1 9 C1 8.34 1 7.68 1 7 C0.34 7 -0.32 7 -1 7 C-1.33 8.32 -1.66 9.64 -2 11 C-2.66 11 -3.32 11 -4 11 C-2.7874262 7.27566618 -1.49140021 3.62197194 0 0 Z " fill="#324860" transform="translate(427,247)"/>
<path d="M0 0 C1.65 0.33 3.3 0.66 5 1 C5 2.32 5 3.64 5 5 C3.125 5.625 3.125 5.625 1 6 C0.34 5.34 -0.32 4.68 -1 4 C-0.625 1.875 -0.625 1.875 0 0 Z " fill="#283B57" transform="translate(313,242)"/>
<path d="M0 0 C1.65 0 3.3 0 5 0 C5 3.69418201 3.71820705 5.77836178 2 9 C1.01 8.34 0.02 7.68 -1 7 C-0.67 4.69 -0.34 2.38 0 0 Z " fill="#E8F4F5" transform="translate(275,240)"/>
<path d="M0 0 C0.66 0.66 1.32 1.32 2 2 C1.67 2.99 1.34 3.98 1 5 C0.34 4.67 -0.32 4.34 -1 4 C-1.66 9.28 -2.32 14.56 -3 20 C-3.33 20 -3.66 20 -4 20 C-4.738041 6.3667426 -4.738041 6.3667426 0 0 Z " fill="#D5E0EA" transform="translate(188,217)"/>
<path d="M0 0 C2.16874252 0.50603992 3.99967627 0.99983813 6 2 C6 2.66 6 3.32 6 4 C6.66 4 7.32 4 8 4 C7.5251065 8.11574371 6.9789756 11.36383344 5 15 C5.05800781 14.33613281 5.11601562 13.67226562 5.17578125 12.98828125 C5.58310864 7.88251083 5.58310864 7.88251083 3.88671875 3.22265625 C2.38431777 1.70538271 2.38431777 1.70538271 0 0 Z " fill="#DACC93" transform="translate(303,101)"/>
<path d="M0 0 C0.33 0.99 0.66 1.98 1 3 C-1.49188889 6.92951709 -3.62178096 8.57707881 -8 10 C-9.34050052 10.65213539 -10.67661368 11.31379969 -12 12 C-8.88635962 7.99674809 -6.44598675 5.52339789 -2 3 C-1.34 2.01 -0.68 1.02 0 0 Z " fill="#D6CB99" transform="translate(325,36)"/>
<path d="M0 0 C3.67024761 1.22341587 4.3606842 2.83514059 6.1484375 6.14453125 C7.18118719 8.39478859 7.70252005 10.54579041 8 13 C5 9.25 5 9.25 5 7 C2.525 6.01 2.525 6.01 0 5 C0 3.35 0 1.7 0 0 Z " fill="#DCD19E" transform="translate(315,96)"/>
<path d="M0 0 C2 1 2 1 4 4 C4 5.32 4 6.64 4 8 C2.02 8 0.04 8 -2 8 C-1.47731534 5.23723823 -0.89130413 2.6739124 0 0 Z " fill="#F4FBF9" transform="translate(250,94)"/>
<path d="M0 0 C0.99 0.495 0.99 0.495 2 1 C2.0825 1.763125 2.165 2.52625 2.25 3.3125 C3.31928277 7.14409658 5.7428623 7.92097593 9 10 C9 10.99 9 11.98 9 13 C5.76486756 11.2476366 2.74335318 9.46527449 0 7 C-0.5625 3.125 -0.5625 3.125 0 0 Z " fill="#D9CA93" transform="translate(258,37)"/>
<path d="M0 0 C0.66 0.66 1.32 1.32 2 2 C1.01 3.485 1.01 3.485 0 5 C-0.66 5 -1.32 5 -2 5 C-2.28875 5.598125 -2.5775 6.19625 -2.875 6.8125 C-4 9 -4 9 -6 12 C-6.66 12 -7.32 12 -8 12 C-8.33 12.66 -8.66 13.32 -9 14 C-9.33 13.01 -9.66 12.02 -10 11 C-9.0925 10.29875 -8.185 9.5975 -7.25 8.875 C-4.08030474 6.25361695 -2.12079889 3.50747509 0 0 Z " fill="#D9E1EB" transform="translate(324,264)"/>
<path d="M0 0 C3.25523313 3.07927458 6.18378112 5.863057 8 10 C7.6875 13.3125 7.6875 13.3125 7 16 C6.67 16 6.34 16 6 16 C5.85304688 15.11248047 5.85304688 15.11248047 5.703125 14.20703125 C4.73033568 9.06634287 3.5992157 5.95913727 0 2 C0 1.34 0 0.68 0 0 Z " fill="#DACCA4" transform="translate(279,24)"/>
<path d="M0 0 C2.31 0 4.62 0 7 0 C7.144375 0.78375 7.28875 1.5675 7.4375 2.375 C7.87798925 4.96421018 7.87798925 4.96421018 9 7 C4.58110387 5.64978174 2.65654657 3.73884332 0 0 Z " fill="#D9A351" transform="translate(276,82)"/>
<path d="M0 0 C0.66 0 1.32 0 2 0 C2 0.99 2 1.98 2 3 C4.64 2.67 7.28 2.34 10 2 C9.67 3.32 9.34 4.64 9 6 C6.69 6 4.38 6 2 6 C1.34 4.02 0.68 2.04 0 0 Z " fill="#FDF6D9" transform="translate(254,53)"/>
<path d="M0 0 C1.98 0.99 3.96 1.98 6 3 C6 3.66 6 4.32 6 5 C6.66 5 7.32 5 8 5 C7.67 6.32 7.34 7.64 7 9 C5.8225266 8.26708288 4.65823146 7.51296199 3.5 6.75 C2.52546875 6.12351562 2.52546875 6.12351562 1.53125 5.484375 C1.0259375 4.99453125 0.520625 4.5046875 0 4 C0 2.68 0 1.36 0 0 Z " fill="#FDF8D8" transform="translate(260,39)"/>
<path d="M0 0 C3 1 3 1 4 3 C5.32 2.67 6.64 2.34 8 2 C7.25 3.9375 7.25 3.9375 6 6 C4 6.875 4 6.875 2 7 C0 5 0 5 -0.125 2.375 C-0.08375 1.59125 -0.0425 0.8075 0 0 Z " fill="#24334B" transform="translate(155,255)"/>
<path d="M0 0 C2 3 2 3 1.625 5.6875 C1.41875 6.450625 1.2125 7.21375 1 8 C0.34 8 -0.32 8 -1 8 C-0.67 9.32 -0.34 10.64 0 12 C-0.99 12.495 -0.99 12.495 -2 13 C-2 9.7 -2 6.4 -2 3 C-1.34 3 -0.68 3 0 3 C0 2.01 0 1.02 0 0 Z " fill="#20314F" transform="translate(77,252)"/>
<path d="M0 0 C0.66 0 1.32 0 2 0 C2 1.98 2 3.96 2 6 C0.02 6.66 -1.96 7.32 -4 8 C-3.34 6.02 -2.68 4.04 -2 2 C-1.34 2 -0.68 2 0 2 C0 1.34 0 0.68 0 0 Z " fill="#2E435C" transform="translate(167,249)"/>
<path d="M0 0 C0.66 0 1.32 0 2 0 C2.33 3.3 2.66 6.6 3 10 C2.01 9.01 1.02 8.02 0 7 C-0.99 7 -1.98 7 -3 7 C-1.125 2.25 -1.125 2.25 0 0 Z " fill="#D4DFE6" transform="translate(399,244)"/>
<path d="M0 0 C0.99 0.33 1.98 0.66 3 1 C3 3.64 3 6.28 3 9 C2.34 7.68 1.68 6.36 1 5 C0.01 5 -0.98 5 -2 5 C-1.125 1.125 -1.125 1.125 0 0 Z " fill="#2E425A" transform="translate(153,242)"/>
<path d="M0 0 C0.33 0 0.66 0 1 0 C1 5.61 1 11.22 1 17 C0.67 17 0.34 17 0 17 C-0.33 13.7 -0.66 10.4 -1 7 C-1.66 7 -2.32 7 -3 7 C-1.125 1.125 -1.125 1.125 0 0 Z " fill="#D7E7F6" transform="translate(118,232)"/>
<path d="M0 0 C0.99 0.33 1.98 0.66 3 1 C2.67 3.64 2.34 6.28 2 9 C1.01 9 0.02 9 -1 9 C-1.125 2.25 -1.125 2.25 0 0 Z " fill="#24354B" transform="translate(187,221)"/>
<path d="M0 0 C0.33 1.32 0.66 2.64 1 4 C1.66 4 2.32 4 3 4 C3.33 5.65 3.66 7.3 4 9 C3.34 9 2.68 9 2 9 C1.34 9.66 0.68 10.32 0 11 C0 8.69 0 6.38 0 4 C-0.66 4 -1.32 4 -2 4 C-1.34 2.68 -0.68 1.36 0 0 Z " fill="#F7F3DA" transform="translate(314,88)"/>
<path d="M0 0 C0.88336837 2.4667645 1.1312406 3.63859372 0.22265625 6.140625 C-0.16019531 6.83671875 -0.54304688 7.5328125 -0.9375 8.25 C-1.31777344 8.95640625 -1.69804687 9.6628125 -2.08984375 10.390625 C-2.39019531 10.92171875 -2.69054687 11.4528125 -3 12 C-3.66 12 -4.32 12 -5 12 C-4.01 8.7 -3.02 5.4 -2 2 C-1.34 2 -0.68 2 0 2 C0 1.34 0 0.68 0 0 Z " fill="#314056" transform="translate(326,255)"/>
<path d="M0 0 C0.66 0 1.32 0 2 0 C3.125 6.625 3.125 6.625 2 10 C2 10.66 2 11.32 2 12 C1.34 12 0.68 12 0 12 C-0.19573608 10.56359829 -0.38127816 9.12580496 -0.5625 7.6875 C-0.66691406 6.88699219 -0.77132813 6.08648437 -0.87890625 5.26171875 C-1 3 -1 3 0 0 Z " fill="#1B3050" transform="translate(269,252)"/>
<path d="M0 0 C0.66 0.33 1.32 0.66 2 1 C1.67 3.31 1.34 5.62 1 8 C-0.32 8 -1.64 8 -3 8 C-1.125 1.125 -1.125 1.125 0 0 Z " fill="#DFE5F0" transform="translate(280,244)"/>
<path d="M0 0 C-0.66 1.65 -1.32 3.3 -2 5 C-4.16874252 4.49396008 -5.99967627 4.00016187 -8 3 C-7.67 2.01 -7.34 1.02 -7 0 C-2.25 -1.125 -2.25 -1.125 0 0 Z " fill="#F4FAFB" transform="translate(226,257)"/>
<path d="M0 0 C0.99 0 1.98 0 3 0 C3.66 3.3 4.32 6.6 5 10 C2 7 2 7 1 5 C0.01 5.495 0.01 5.495 -1 6 C-0.67 4.02 -0.34 2.04 0 0 Z " fill="#C1CCD7" transform="translate(410,247)"/>
<path d="M0 0 C1.98 0.495 1.98 0.495 4 1 C4 3.97 4 6.94 4 10 C3.01 9.67 2.02 9.34 1 9 C1.66 9 2.32 9 3 9 C3 7.68 3 6.36 3 5 C1.68 4.34 0.36 3.68 -1 3 C-0.67 2.01 -0.34 1.02 0 0 Z " fill="#F4BE39" transform="translate(284,84)"/>
<path d="M0 0 C2.97 0.99 5.94 1.98 9 3 C9 3.66 9 4.32 9 5 C6.1875 5.3125 6.1875 5.3125 3 5 C1.125 2.5 1.125 2.5 0 0 Z " fill="#2E415A" transform="translate(346,263)"/>
<path d="M0 0 C1 3 1 3 -0.625 6.625 C-2.25372307 9.33004706 -2.64722937 9.87973729 -5.75 10.9375 C-6.4925 10.958125 -7.235 10.97875 -8 11 C-8.33 10.34 -8.66 9.68 -9 9 C-7.02 8.67 -5.04 8.34 -3 8 C-2.690625 7.05125 -2.38125 6.1025 -2.0625 5.125 C-1 2 -1 2 0 0 Z " fill="#303E4B" transform="translate(295,251)"/>
<path d="M0 0 C2.67927341 4.01891012 2.15601248 6.24161923 2 11 C1.01 11.495 1.01 11.495 0 12 C-1.49498913 9.01002175 -1.11577446 6.29957225 -1 3 C-0.67 2.01 -0.34 1.02 0 0 Z " fill="#C9DAE5" transform="translate(367,248)"/>
<path d="M0 0 C0.99 0 1.98 0 3 0 C2.67 2.31 2.34 4.62 2 7 C1.01 7 0.02 7 -1 7 C-1.04254356 5.00045254 -1.04080783 2.99958364 -1 1 C-0.67 0.67 -0.34 0.34 0 0 Z " fill="#1D3355" transform="translate(347,236)"/>
<path d="M0 0 C2.475 0.495 2.475 0.495 5 1 C5.25 3.8125 5.25 3.8125 5 7 C3 8.875 3 8.875 1 10 C1.66 7.03 2.32 4.06 3 1 C2.01 0.67 1.02 0.34 0 0 Z " fill="#253248" transform="translate(222,239)"/>
<path d="M0 0 C1.32 0.33 2.64 0.66 4 1 C3.67 2.65 3.34 4.3 3 6 C0.525 5.01 0.525 5.01 -2 4 C-1.34 2.68 -0.68 1.36 0 0 Z " fill="#394965" transform="translate(75,224)"/>
<path d="M0 0 C0.33 1.32 0.66 2.64 1 4 C-4.75 9 -4.75 9 -7 9 C-7 7 -7 7 -4.625 4.375 C-2 2 -2 2 0 2 C0 1.34 0 0.68 0 0 Z " fill="#3F4657" transform="translate(440,242)"/>
<path d="M0 0 C1 3 1 3 -0.25 5.6875 C-0.8275 6.450625 -1.405 7.21375 -2 8 C-2.99 8 -3.98 8 -5 8 C-4.64950425 4.75791433 -4.43778819 3.38472296 -1.9375 1.1875 C-1.298125 0.795625 -0.65875 0.40375 0 0 Z " fill="#EEF3F6" transform="translate(97,226)"/>
<path d="M0 0 C0.66 0 1.32 0 2 0 C2 0.66 2 1.32 2 2 C3.65 2 5.3 2 7 2 C7 2.99 7 3.98 7 5 C5.35 5 3.7 5 2 5 C1.34 3.35 0.68 1.7 0 0 Z " fill="#E2EAF6" transform="translate(170,256)"/>
<path d="M0 0 C0.33 0 0.66 0 1 0 C1.66 2.64 2.32 5.28 3 8 C1.35 7.67 -0.3 7.34 -2 7 C-2 5.68 -2 4.36 -2 3 C-1.34 3 -0.68 3 0 3 C0 2.01 0 1.02 0 0 Z " fill="#1C324D" transform="translate(249,243)"/>
<path d="M0 0 C0.99 0.66 1.98 1.32 3 2 C2.19185349 3.33597652 1.37836819 4.668725 0.5625 6 C0.11003906 6.7425 -0.34242188 7.485 -0.80859375 8.25 C-1.20175781 8.8275 -1.59492188 9.405 -2 10 C-2.33 10 -2.66 10 -3 10 C-2.67 7.36 -2.34 4.72 -2 2 C-1.34 2 -0.68 2 0 2 C0 1.34 0 0.68 0 0 Z " fill="#E3EDF5" transform="translate(170,219)"/>
<path d="M0 0 C1.670625 0.061875 1.670625 0.061875 3.375 0.125 C3.045 1.115 2.715 2.105 2.375 3.125 C0.065 3.455 -2.245 3.785 -4.625 4.125 C-4.955 3.465 -5.285 2.805 -5.625 2.125 C-3.625 0.125 -3.625 0.125 0 0 Z " fill="#F3BC3D" transform="translate(309.625,88.875)"/>
<path d="M0 0 C-0.66 1.32 -1.32 2.64 -2 4 C-4.31 3.67 -6.62 3.34 -9 3 C-5.92807025 0.26939578 -4.09590633 -0.34132553 0 0 Z " fill="#ECF2F6" transform="translate(354,268)"/>
<path d="M0 0 C0.99 1.485 0.99 1.485 2 3 C5.58357241 3.25015873 5.58357241 3.25015873 9 3 C9 4.98 9 6.96 9 9 C8.34 8.01 7.68 7.02 7 6 C3.43230448 5.26393501 3.43230448 5.26393501 0 5 C0 3.35 0 1.7 0 0 Z " fill="#B7C4D4" transform="translate(246,247)"/>
<path d="M0 0 C0.66 0.33 1.32 0.66 2 1 C2 2.65 2 4.3 2 6 C0.68 6.33 -0.64 6.66 -2 7 C-2.33 6.34 -2.66 5.68 -3 5 C-1.5625 2.375 -1.5625 2.375 0 0 Z " fill="#D3E4EB" transform="translate(196,244)"/>
<path d="M0 0 C0.28875 0.598125 0.5775 1.19625 0.875 1.8125 C2.04742026 4.19327792 2.04742026 4.19327792 4 7 C2.02 7.99 2.02 7.99 0 9 C-0.99 8.34 -1.98 7.68 -3 7 C-2.34 6.34 -1.68 5.68 -1 5 C-0.35232207 2.42938689 -0.35232207 2.42938689 0 0 Z " fill="#D8DCE7" transform="translate(227,241)"/>
<path d="M0 0 C1.32 0 2.64 0 4 0 C3.67 1.65 3.34 3.3 3 5 C2.01 4.67 1.02 4.34 0 4 C-0.99 4.495 -0.99 4.495 -2 5 C-1.34 3.35 -0.68 1.7 0 0 Z " fill="#E1E7EE" transform="translate(221,240)"/>
<path d="M0 0 C1.32 0 2.64 0 4 0 C4 1.65 4 3.3 4 5 C2.68 5 1.36 5 0 5 C-0.33 4.01 -0.66 3.02 -1 2 C-0.67 1.34 -0.34 0.68 0 0 Z " fill="#293A54" transform="translate(257,226)"/>
<path d="M0 0 C0.66 0 1.32 0 2 0 C1.67 1.98 1.34 3.96 1 6 C-0.98 6 -2.96 6 -5 6 C-3.38405168 3.95880212 -1.7143618 1.95927063 0 0 Z " fill="#1B2A52" transform="translate(302,162)"/>
<path d="M0 0 C1.32 1.32 2.64 2.64 4 4 C3.67 4.99 3.34 5.98 3 7 C2.34 6.67 1.68 6.34 1 6 C0.67 6.66 0.34 7.32 0 8 C-1.125 2.25 -1.125 2.25 0 0 Z " fill="#2C3E65" transform="translate(301,156)"/>
<path d="M0 0 C0.66 0 1.32 0 2 0 C2.33 1.98 2.66 3.96 3 6 C2.01 6.33 1.02 6.66 0 7 C-0.38133299 5.0085944 -0.71325582 3.00720923 -1 1 C-0.67 0.67 -0.34 0.34 0 0 Z " fill="#162D62" transform="translate(298,159)"/>
<path d="M0 0 C1.32 0 2.64 0 4 0 C3.34 2.97 2.68 5.94 2 9 C0 7 0 7 -0.125 3.375 C-0.08375 2.26125 -0.0425 1.1475 0 0 Z " fill="#FDF6DD" transform="translate(256,35)"/>
<path d="M0 0 C0.99 0.33 1.98 0.66 3 1 C2.34 1 1.68 1 1 1 C1 3.97 1 6.94 1 10 C-0.95418308 7.06872538 -1.64700993 5.44165321 -2 2 C-1.34 1.34 -0.68 0.68 0 0 Z " fill="#FEFBEB" transform="translate(309,26)"/>
<path d="M0 0 C0.66 0.33 1.32 0.66 2 1 C0.02 3.31 -1.96 5.62 -4 8 C-4.33 6.68 -4.66 5.36 -5 4 C-3.35 2.68 -1.7 1.36 0 0 Z " fill="#1F324B" transform="translate(320,267)"/>
<path d="M0 0 C0.66 0.33 1.32 0.66 2 1 C0.4375 3.0625 0.4375 3.0625 -2 5 C-5.75 4.75 -5.75 4.75 -9 4 C-6.33496595 2.22331063 -4.98315427 1.67361548 -2 1 C-1.34 0.67 -0.68 0.34 0 0 Z " fill="#DAE5F1" transform="translate(319,266)"/>
<path d="M0 0 C0.99 0.495 0.99 0.495 2 1 C2 4 2 7 2 10 C1.34 10.66 0.68 11.32 0 12 C0 8.04 0 4.08 0 0 Z " fill="#1A324D" transform="translate(345,245)"/>
<path d="M0 0 C0.66 0 1.32 0 2 0 C1.01 2.97 0.02 5.94 -1 9 C-1.33 9 -1.66 9 -2 9 C-2.25 3.375 -2.25 3.375 0 0 Z " fill="#CFDDE9" transform="translate(238,247)"/>
<path d="M0 0 C0 0.33 0 0.66 0 1 C-5.52967941 1.71033431 -10.49983036 2.30267176 -16 1 C-16 0.67 -16 0.34 -16 0 C-10.42289352 -1.06795656 -5.60563042 -0.82622671 0 0 Z " fill="#35405A" transform="translate(220,102)"/>
<path d="M0 0 C0.66 0.33 1.32 0.66 2 1 C1.21625 1.598125 0.4325 2.19625 -0.375 2.8125 C-3.14574323 4.91085249 -3.14574323 4.91085249 -5 8 C-5.99 7.67 -6.98 7.34 -8 7 C-5.36 4.69 -2.72 2.38 0 0 Z " fill="#D2CA8D" transform="translate(331,48)"/>
<path d="M0 0 C2.40072955 2.88087546 4.47291037 5.56404834 6 9 C4.35 8.67 2.7 8.34 1 8 C0.67 5.36 0.34 2.72 0 0 Z " fill="#FBF6DC" transform="translate(278,24)"/>
<path d="M0 0 C0.33 0 0.66 0 1 0 C1.25 2.3125 1.25 2.3125 1 5 C-1.23738248 7.40311451 -2.46340904 7.96341425 -5.75 8.1875 C-6.4925 8.125625 -7.235 8.06375 -8 8 C-7.13375 7.690625 -7.13375 7.690625 -6.25 7.375 C-3.19664942 5.50906354 -1.88605645 2.99167574 0 0 Z " fill="#CBD7E6" transform="translate(211,255)"/>
<path d="M0 0 C0.33 0.99 0.66 1.98 1 3 C-0.21484375 5.04296875 -0.21484375 5.04296875 -1.9375 7.1875 C-2.50339844 7.90292969 -3.06929687 8.61835938 -3.65234375 9.35546875 C-4.09707031 9.89816406 -4.54179687 10.44085938 -5 11 C-5.66 10.34 -6.32 9.68 -7 9 C-6.21625 8.2575 -5.4325 7.515 -4.625 6.75 C-2.43495469 4.45566682 -1.17268614 2.87841142 0 0 Z " fill="#545E64" transform="translate(231,252)"/>
<path d="M0 0 C0.66 0 1.32 0 2 0 C2 2.64 2 5.28 2 8 C1.01 7.67 0.02 7.34 -1 7 C-0.67 4.69 -0.34 2.38 0 0 Z " fill="#C7DCE9" transform="translate(151,247)"/>
<path d="M0 0 C1.32 0.33 2.64 0.66 4 1 C3.5359375 1.86625 3.5359375 1.86625 3.0625 2.75 C2.07416636 4.84294184 1.4831387 6.74535275 1 9 C0.67 9 0.34 9 0 9 C0 6.03 0 3.06 0 0 Z " fill="#D7E7ED" transform="translate(430,251)"/>
<path d="M0 0 C0.99 0.33 1.98 0.66 3 1 C3 3.31 3 5.62 3 8 C2.34 8 1.68 8 1 8 C-0.125 4.25 -0.125 4.25 1 2 C0.34 1.67 -0.32 1.34 -1 1 C-0.67 0.67 -0.34 0.34 0 0 Z " fill="#2C3D57" transform="translate(233,242)"/>
<path d="M0 0 C2 2 2 2 2 5 C2.66 5.66 3.32 6.32 4 7 C3.01 7 2.02 7 1 7 C0.67 7.66 0.34 8.32 0 9 C-1.125 3.375 -1.125 3.375 0 0 Z " fill="#1C304A" transform="translate(429,244)"/>
<path d="M0 0 C2.475 0.99 2.475 0.99 5 2 C4.67 4.31 4.34 6.62 4 9 C2.00902154 6.01353231 1.05875074 3.40312738 0 0 Z " fill="#F7F6E2" transform="translate(289,100)"/>
<path d="M0 0 C1.65 0.33 3.3 0.66 5 1 C5 1.99 5 2.98 5 4 C2.69 4 0.38 4 -2 4 C-1.34 2.68 -0.68 1.36 0 0 Z " fill="#F1EED6" transform="translate(323,65)"/>
<path d="M0 0 C1.5 1.1875 1.5 1.1875 3 3 C3.1875 5.6875 3.1875 5.6875 3 8 C1.68 7.01 0.36 6.02 -1 5 C-0.67 3.35 -0.34 1.7 0 0 Z " fill="#EDF9F4" transform="translate(260,63)"/>
<path d="M0 0 C0.99 0.33 1.98 0.66 3 1 C1.42655961 4.14688078 -1.27851951 5.79965407 -4 8 C-4.33 7.01 -4.66 6.02 -5 5 C-3.35 3.35 -1.7 1.7 0 0 Z " fill="#D1DBE4" transform="translate(164,256)"/>
<path d="M0 0 C0 0.99 0 1.98 0 3 C-3.3 2.67 -6.6 2.34 -10 2 C-10 1.67 -10 1.34 -10 1 C-2.25 0 -2.25 0 0 0 Z " fill="#FAF4C8" transform="translate(340,68)"/>
<path d="M0 0 C0.598125 0.309375 1.19625 0.61875 1.8125 0.9375 C4.08956772 2.10209704 4.08956772 2.10209704 7 3 C5.1875 4.0625 5.1875 4.0625 3 5 C2.01 4.67 1.02 4.34 0 4 C0 2.68 0 1.36 0 0 Z " fill="#1C3249" transform="translate(138,258)"/>
<path d="M0 0 C2.0625 0.4375 2.0625 0.4375 4 1 C3.34 2.32 2.68 3.64 2 5 C1.34 5 0.68 5 0 5 C-0.5625 3.0625 -0.5625 3.0625 -1 1 C-0.67 0.67 -0.34 0.34 0 0 Z " fill="#2F3E53" transform="translate(234,260)"/>
<path d="M0 0 C0.66 0 1.32 0 2 0 C2 3.3 2 6.6 2 10 C1.67 9.34 1.34 8.68 1 8 C0.34 8 -0.32 8 -1 8 C-0.67 5.36 -0.34 2.72 0 0 Z " fill="#BCCCDB" transform="translate(182,251)"/>
<path d="M0 0 C2 2 2 2 2 5 C0 6.6875 0 6.6875 -2 8 C-2 4.23312136 -1.76462683 3.08809695 0 0 Z " fill="#E8EEF4" transform="translate(149,253)"/>
<path d="M0 0 C0.66 0 1.32 0 2 0 C0.52307692 5.66153846 0.52307692 5.66153846 -2.125 7.375 C-3.053125 7.684375 -3.053125 7.684375 -4 8 C-4 7.34 -4 6.68 -4 6 C-3.34 5.67 -2.68 5.34 -2 5 C-1.27840576 3.35636866 -0.60648579 1.68949614 0 0 Z " fill="#2B405D" transform="translate(256,243)"/>
<path d="M0 0 C1.093125 0.226875 2.18625 0.45375 3.3125 0.6875 C1.3125 2.6875 1.3125 2.6875 -0.6328125 2.8828125 C-2.65104167 2.81770833 -4.66927083 2.75260417 -6.6875 2.6875 C-4.58035839 -0.41123767 -3.86755884 -0.32775922 0 0 Z " fill="#223248" transform="translate(322.6875,245.3125)"/>
<path d="M0 0 C0 0.66 0 1.32 0 2 C1.32 2.66 2.64 3.32 4 4 C1.125 4.1875 1.125 4.1875 -2 4 C-2.66 3.01 -3.32 2.02 -4 1 C-2 0 -2 0 0 0 Z " fill="#D4E1E9" transform="translate(322,242)"/>
<path d="M0 0 C0 1.32 0 2.64 0 4 C-0.99 4.33 -1.98 4.66 -3 5 C-3.66 4.67 -4.32 4.34 -5 4 C-4.67 3.01 -4.34 2.02 -4 1 C-2 0 -2 0 0 0 Z " fill="#EFF4FA" transform="translate(188,91)"/>
<path d="M0 0 C0.99 0 1.98 0 3 0 C3.33 1.98 3.66 3.96 4 6 C3.34 6 2.68 6 2 6 C2 5.34 2 4.68 2 4 C1.01 3.67 0.02 3.34 -1 3 C-0.67 2.01 -0.34 1.02 0 0 Z " fill="#F5F1D8" transform="translate(332,47)"/>
</svg>
